<svg width="65" height="64" viewBox="0 0 65 64" fill="none" xmlns="http://www.w3.org/2000/svg">
  <path fill-rule="evenodd" clip-rule="evenodd"
    d="M52.5346 1.09351H13.2768C6.40365 1.09351 1 7.89527 1 16.5444V47.4556C1 56.1141 6.40365 62.9065 13.2768 62.9065H52.5346C59.4078 62.9065 64.8021 56.1141 64.8021 47.4556V16.5444C64.8021 7.89527 59.4078 1.09351 52.5346 1.09351Z"
    fill="#00529C" stroke="#00529C" stroke-width="0.288" stroke-linecap="round"
    stroke-linejoin="round" />
  <path fill-rule="evenodd" clip-rule="evenodd"
    d="M21.1915 50.5813V43.7236C21.1915 43.1544 21.2752 42.5946 21.4519 42.0348C21.8705 40.7565 22.5308 39.7302 23.433 38.9558C24.4281 38.1068 25.5628 37.6869 26.837 37.6869C28.2135 37.6869 29.5063 38.2467 30.7153 39.3943C31.8128 38.2467 33.0963 37.6869 34.5658 37.6869C35.8493 37.6869 36.9839 38.1068 37.9884 38.9371C39.0022 39.7675 39.6625 40.8312 39.9973 42.1188C40.1648 42.7252 40.2392 43.2197 40.2392 43.6116V50.5813H36.7235V43.7982C36.6863 43.537 36.677 43.397 36.677 43.369C36.5654 42.7999 36.3329 42.3147 35.9888 41.9228C35.5796 41.475 35.1145 41.2417 34.5937 41.2417C34.0636 41.2417 33.6078 41.475 33.1986 41.9228C32.8638 42.3147 32.6406 42.7999 32.5383 43.369C32.5197 43.481 32.5011 43.6209 32.4918 43.7982V50.5813H28.9482V43.7236C28.911 43.481 28.8924 43.3597 28.8924 43.341C28.7808 42.7812 28.5483 42.296 28.2042 41.8948C27.795 41.4656 27.3392 41.2417 26.8184 41.2417C26.2139 41.2417 25.7023 41.5403 25.2838 42.1374C24.9025 42.6693 24.7072 43.2477 24.7072 43.9008V50.5813H21.1915Z"
    fill="#F36F21" stroke="#F36F21" stroke-width="0.288" stroke-linecap="round"
    stroke-linejoin="round" />
  <path fill-rule="evenodd" clip-rule="evenodd"
    d="M41.1041 44.134C41.1041 42.3705 41.7273 40.8684 42.9642 39.6088C44.2198 38.3585 45.7079 37.7334 47.4471 37.7334C49.2142 37.7334 50.7395 38.3585 51.9951 39.6088C53.2507 40.8684 53.8832 42.3799 53.8832 44.162C53.8832 45.9067 53.2507 47.4182 51.9951 48.6871C50.7488 49.956 49.2422 50.5812 47.4936 50.5812C45.7172 50.5812 44.2198 49.9654 42.9642 48.7058C41.7273 47.4462 41.1041 45.916 41.1041 44.134ZM44.6198 44.134C44.6198 44.9364 44.8988 45.6268 45.4568 46.1866C46.0148 46.7464 46.6938 47.0263 47.4936 47.0263C48.2749 47.0263 48.9445 46.7464 49.5026 46.1866C50.0792 45.6081 50.3675 44.927 50.3675 44.134C50.3675 43.3502 50.0792 42.6784 49.5026 42.1186C48.9259 41.5495 48.2563 41.2696 47.475 41.2696C46.6845 41.2696 46.0148 41.5495 45.4568 42.1186C44.8988 42.6784 44.6198 43.3502 44.6198 44.134Z"
    fill="#F36F21" stroke="#F36F21" stroke-width="0.288" stroke-linecap="round"
    stroke-linejoin="round" />
  <path fill-rule="evenodd" clip-rule="evenodd"
    d="M26.6232 22.3383C26.772 22.1983 26.9394 22.0117 27.1348 21.7878C27.3301 21.5639 27.5161 21.3026 27.7021 20.9854C27.8788 20.6775 28.0276 20.3323 28.1578 19.9497C28.2787 19.5765 28.3438 19.166 28.3438 18.7368C28.3438 17.8971 28.195 17.1133 27.8974 16.3856C27.6091 15.6578 27.1627 15.0233 26.5581 14.4822C25.9443 13.9317 25.1909 13.5118 24.2888 13.2039C23.3773 12.896 22.317 12.7374 21.108 12.7374H21.0801H17.6016H16.6902H13.1281V16.6655V30.241V34.281H21.8892C23.1634 34.281 24.2702 34.1131 25.2281 33.7678C26.1675 33.4413 26.958 32.9748 27.5905 32.3683C28.2136 31.7805 28.6787 31.0901 28.9856 30.297C29.2832 29.5132 29.432 28.6642 29.432 27.7592C29.432 26.5462 29.153 25.4639 28.5857 24.5309C28.0276 23.5885 27.3766 22.8514 26.6232 22.3383ZM22.7449 16.6841C23.0425 16.7961 23.2843 16.9454 23.4703 17.1227C23.9819 17.5892 24.2237 18.1583 24.2237 18.8114C24.2237 19.3992 24.1214 19.8937 23.9167 20.2763C23.7028 20.6682 23.4982 20.9667 23.2843 21.1627H17.1924V16.4322H20.9871C21.6939 16.4322 22.2798 16.5162 22.7449 16.6841ZM22.1124 24.9041C23.2099 24.9041 24.0284 25.184 24.5678 25.7438C25.0607 26.2943 25.3211 26.9474 25.3211 27.7032C25.3211 28.4776 25.0328 29.14 24.4562 29.6905C23.8888 30.241 22.9495 30.5116 21.6381 30.5116H21.1452H17.1924V24.9041H22.1124ZM44.3037 24.9974C44.9547 24.5682 45.5034 24.055 45.9406 23.4672C46.3777 22.8794 46.7032 22.2356 46.9171 21.5265C47.1217 20.8174 47.2241 20.0897 47.2241 19.3526C47.2241 18.3916 47.0566 17.5052 46.7404 16.6935C46.4149 15.8911 45.9313 15.1913 45.2895 14.6035C44.6385 14.025 43.8293 13.5585 42.8621 13.2319C41.8948 12.9054 40.7694 12.7374 39.4953 12.7374H39.3836H30.948H30.8643V34.281H35.0124V26.285H37.3375L43.0574 34.281H47.9123L41.9971 26.0051C42.8714 25.7811 43.6433 25.4453 44.3037 24.9974ZM39.5232 16.4322C39.7743 16.4322 40.0254 16.4509 40.2672 16.4789C41.0113 16.5908 41.6158 16.8521 42.0808 17.2626C42.7133 17.8224 43.0295 18.5129 43.0295 19.3339C43.0295 19.7351 42.9644 20.1363 42.8249 20.5189C42.6854 20.9107 42.4714 21.256 42.1831 21.5452C41.8948 21.8531 41.5228 22.0864 41.0578 22.273C40.602 22.4596 40.0533 22.5529 39.4115 22.5529H35.0124V16.4322H39.5232ZM49.3818 12.7374V12.7468L49.2516 12.7374H49.2237V20.6402V26.3036V34.281H53.4462V12.7374H49.3818Z"
    fill="white" stroke="white" stroke-width="0.288" stroke-linecap="round"
    stroke-linejoin="round" />
</svg>
    