<svg width="29" height="26" viewBox="0 0 29 26" fill="none" xmlns="http://www.w3.org/2000/svg">
  <path
    d="M28.3097 6.63304C27.9929 5.97868 27.6263 5.34715 27.2009 4.75159L22.6564 6.40547C23.1848 6.94639 23.6289 7.5544 23.992 8.20461L28.3097 6.63304ZM8.22082 11.6595L3.6749 13.3134C3.733 14.0424 3.85889 14.7625 4.03528 15.4681L8.35363 13.8958C8.21321 13.1654 8.16341 12.4128 8.22082 11.6595Z"
    fill="#BDC0CB" />
  <path
    d="M18.3094 5.34561C19.255 5.78692 20.074 6.38871 20.765 7.09425L25.3096 5.44037C24.0506 3.67374 22.3359 2.19763 20.2352 1.21748C13.7379 -1.81222 5.98661 1.00858 2.9576 7.50513C1.97676 9.60724 1.61222 11.8401 1.78377 14.0024L6.329 12.3485C6.4044 11.3635 6.64442 10.3764 7.08504 9.43016C9.05365 5.20934 14.0886 3.37769 18.3094 5.34561Z"
    fill="white" />
  <path
    d="M23.1568 13.6505C23.0841 14.6349 22.8358 15.6219 22.3938 16.5689C20.4259 20.7904 15.3902 22.622 11.1701 20.6541C10.2231 20.2121 9.39794 19.6152 8.70968 18.9082L4.17413 20.5587C5.43028 22.3253 7.14296 23.8021 9.24507 24.7829C15.7423 27.812 23.4922 24.9912 26.5219 18.4939C27.5035 16.3932 27.8652 14.1603 27.6923 12.0001L23.1568 13.6505Z"
    fill="white" />
  <path
    d="M24.2744 8.10205L19.956 9.67362C20.7584 11.111 21.1375 12.7656 21.0129 14.4298L25.5485 12.7801C25.4185 11.1525 24.9848 9.56364 24.2744 8.10205ZM4.31835 15.3645L0 16.9374C0.396351 18.5118 1.0846 20.0079 2.03086 21.3395L6.56572 19.6884C5.40157 18.4931 4.62755 16.9803 4.31835 15.3645Z"
    fill="white" />
  <path
    d="M27.6921 12.0001L23.1565 13.6505C23.1087 14.3035 22.9815 14.9579 22.7733 15.6012L27.71 13.8013C27.7453 13.1982 27.7398 12.5964 27.6921 12.0001ZM4.17456 20.5594C4.52387 21.0512 4.91054 21.5201 5.33041 21.9628L10.2678 20.1623C9.69096 19.8012 9.16941 19.38 8.70942 18.9082L4.17456 20.5594Z"
    fill="#BDC0CB" fillOpacity="0.7" />
</svg>
    