<svg width="33" height="33" viewBox="0 0 33 33" fill="none" xmlns="http://www.w3.org/2000/svg">
  <path
    d="M26.125 30.25H6.875C4.5375 30.25 2.75 28.4625 2.75 26.125V20.625C2.75 18.2875 4.5375 16.5 6.875 16.5H26.125C28.4625 16.5 30.25 18.2875 30.25 20.625V26.125C30.25 28.4625 28.4625 30.25 26.125 30.25ZM6.875 19.25C6.05 19.25 5.5 19.8 5.5 20.625V26.125C5.5 26.95 6.05 27.5 6.875 27.5H26.125C26.95 27.5 27.5 26.95 27.5 26.125V20.625C27.5 19.8 26.95 19.25 26.125 19.25H6.875Z"
    fill="white" />
  <path
    d="M23.375 24.75C22.55 24.75 22 24.2 22 23.375C22 22.55 22.55 22 23.375 22C24.2 22 24.75 22.55 24.75 23.375C24.75 24.2 24.2 24.75 23.375 24.75Z"
    fill="white" />
  <path
    d="M17.875 24.75C17.05 24.75 16.5 24.2 16.5 23.375C16.5 22.55 17.05 22 17.875 22C18.7 22 19.25 22.55 19.25 23.375C19.25 24.2 18.7 24.75 17.875 24.75Z"
    fill="white" />
  <path
    d="M20.625 19.25C19.8 19.25 19.25 18.7 19.25 17.875V15.125C19.25 14.3 19.8 13.75 20.625 13.75C21.45 13.75 22 14.3 22 15.125V17.875C22 18.7 21.45 19.25 20.625 19.25Z"
    fill="white" />
  <path
    d="M25.1625 13.475C24.75 13.475 24.3375 13.3375 24.0625 12.925C23.65 12.375 23.2375 11.9625 22.55 11.6875C21.45 11.1375 19.9375 11.1375 18.8375 11.6875C18.2875 11.9625 17.7375 12.375 17.325 12.925C16.9125 13.475 16.0875 13.75 15.4 13.2C14.85 12.7875 14.575 11.9625 15.125 11.275C15.675 10.3125 16.5 9.62499 17.4625 9.07499C19.3875 8.11249 21.8625 8.11249 23.7875 9.07499C24.75 9.62499 25.575 10.3125 26.2625 11.275C26.675 11.825 26.5375 12.7875 25.9875 13.2C25.7125 13.3375 25.4375 13.475 25.1625 13.475Z"
    fill="white" />
  <path
    d="M11.6875 10.3125C11.4125 10.3125 11.1375 10.175 10.8625 10.0375C10.3125 9.625 10.175 8.8 10.5875 8.1125C11.6875 6.4625 13.2 5.225 14.9875 4.2625C18.425 2.475 22.825 2.475 26.2625 4.2625C28.05 5.225 29.5625 6.4625 30.6625 8.1125C31.075 8.6625 30.9375 9.625 30.3875 10.0375C29.7 10.45 28.875 10.3125 28.4625 9.7625C27.6375 8.525 26.4 7.5625 25.025 6.875C22.275 5.5 18.975 5.5 16.225 6.875C14.85 7.5625 13.75 8.525 12.7875 9.7625C12.5125 10.175 12.1 10.3125 11.6875 10.3125Z"
    fill="white" />
</svg>
  