<svg width="26" height="24" viewBox="0 0 26 24" fill="none" xmlns="http://www.w3.org/2000/svg">
  <path fill-rule="evenodd" clip-rule="evenodd"
    d="M0 16.0625C0 17.4087 1.09131 18.5 2.4375 18.5H6.70911C7.00444 19.3842 7.59986 20.1536 8.41344 20.6608L12.5702 23.252C12.8333 23.416 13.1667 23.416 13.4298 23.252L17.5866 20.6608C18.4001 20.1536 18.9955 19.3842 19.2909 18.5H23.5625C24.9087 18.5 26 17.4087 26 16.0625V3.0625C26 1.71631 24.9087 0.625 23.5625 0.625H2.4375C1.0913 0.625 0 1.71631 0 3.0625V16.0625ZM19.5 16.875H23.5625C24.0112 16.875 24.375 16.5112 24.375 16.0625V7.125H1.625V16.0625C1.625 16.5112 1.98877 16.875 2.4375 16.875H6.5V11.9261C6.5 11.5979 6.69755 11.3018 7.00069 11.1759L12.6882 8.81224C12.8878 8.72928 13.1122 8.72928 13.3118 8.81224L18.9993 11.1759C19.3025 11.3018 19.5 11.5979 19.5 11.9261V16.875ZM24.375 3.875H1.625V3.0625C1.625 2.61377 1.98876 2.25 2.4375 2.25H23.5625C24.0112 2.25 24.375 2.61377 24.375 3.0625V3.875ZM8.125 17.2132V12.4683L13 10.4424L17.875 12.4683V17.2132C17.875 18.0547 17.441 18.8366 16.7269 19.2818L13 21.605L9.27306 19.2818C8.55896 18.8366 8.125 18.0547 8.125 17.2132Z"
    fill="white" />
</svg>