<svg width="28" height="28" viewBox="0 0 28 28" fill="none" xmlns="http://www.w3.org/2000/svg">
  <g clip-path="url(#clip0_6_127)">
    <path
      d="M24.4999 1.42175H3.49991C1.56782 1.42406 0.00230713 2.98983 0 4.92192V18.9218C0.00230713 20.8539 1.56782 22.4197 3.49991 22.4218H9.7589C9.56638 24.259 8.63097 25.2218 7.69991 25.2218C7.31334 25.2218 7.00009 25.5354 7.00009 25.9219C7.00009 26.3085 7.31334 26.6218 7.69991 26.6218H20.2999C20.6865 26.6218 21 26.3085 21 25.9219C21 25.5354 20.6865 25.2218 20.2999 25.2218C19.3691 25.2218 18.4334 24.259 18.2409 22.4218H24.4999C26.432 22.4197 27.9978 20.8539 28.0001 18.9218V4.92192C27.9978 2.98983 26.432 1.42406 24.4999 1.42175ZM3.49991 2.82192H24.4999C25.6594 2.82321 26.5986 3.76246 26.5999 4.92192V18.2218H1.39991V4.92192C1.4012 3.76246 2.34071 2.82321 3.49991 2.82192ZM17.7544 25.2218H10.2457C10.7948 24.3872 11.1093 23.42 11.156 22.4218H16.8441C16.8907 23.42 17.205 24.3872 17.7544 25.2218ZM24.4999 21.0218H3.49991C2.61295 21.019 1.82366 20.4584 1.52886 19.6219H26.471C26.1764 20.4584 25.3871 21.019 24.4999 21.0218Z"
      fill="white" fill-opacity="0.8" />
    <path
      d="M9.79991 14.7219C12.1196 14.7219 13.9999 12.8416 13.9999 10.5219C13.9999 8.20221 12.1196 6.3219 9.79991 6.3219C7.48048 6.3219 5.59991 8.20221 5.59991 10.5219C5.60248 12.8406 7.48151 14.7193 9.79991 14.7219ZM12.5005 9.82181H10.5V7.82128C11.48 8.0766 12.2452 8.8418 12.5005 9.82181ZM9.10008 7.82128V10.5219C9.09983 10.7075 9.17366 10.8857 9.30491 11.0169C9.43616 11.1484 9.61432 11.222 9.79991 11.222H12.5005C12.1619 12.5427 10.9194 13.4261 9.56049 13.3122C8.20184 13.1982 7.12364 12.1202 7.00983 10.7613C6.89575 9.40268 7.77913 8.15991 9.10008 7.82128Z"
      fill="white" fill-opacity="0.8" />
    <path
      d="M17.5001 8.42189H21.7001C22.0866 8.42189 22.3999 8.10837 22.3999 7.7218C22.3999 7.33523 22.0866 7.02197 21.7001 7.02197H17.5001C17.1135 7.02197 16.8 7.33523 16.8 7.7218C16.8 8.10837 17.1135 8.42189 17.5001 8.42189Z"
      fill="white" fill-opacity="0.8" />
    <path
      d="M17.5001 11.2219H21.7001C22.0866 11.2219 22.3999 10.9084 22.3999 10.5219C22.3999 10.1353 22.0866 9.82178 21.7001 9.82178H17.5001C17.1135 9.82178 16.8 10.1353 16.8 10.5219C16.8 10.9084 17.1135 11.2219 17.5001 11.2219Z"
      fill="white" fill-opacity="0.8" />
    <path
      d="M17.5001 14.0217H21.7001C22.0866 14.0217 22.3999 13.7085 22.3999 13.3219C22.3999 12.9353 22.0866 12.6218 21.7001 12.6218H17.5001C17.1135 12.6218 16.8 12.9353 16.8 13.3219C16.8 13.7085 17.1135 14.0217 17.5001 14.0217Z"
      fill="white" fill-opacity="0.8" />
  </g>
  <defs>
    <clipPath id="clip0_6_127">
      <rect width="28" height="28" fill="white" />
    </clipPath>
  </defs>
</svg>    