<svg width="31" height="31" viewBox="0 0 31 31" fill="none" xmlns="http://www.w3.org/2000/svg">
  <g clip-path="url(#clip0_612_1337)">
    <path
      d="M8.23438 27.0645H13.0548C13.5563 27.0645 13.963 26.6578 13.963 26.1562C13.963 25.6547 13.5563 25.248 13.0548 25.248H8.23438C7.7328 25.248 7.32617 25.6547 7.32617 26.1562C7.32617 26.6578 7.7328 27.0645 8.23438 27.0645Z"
      fill="white" />
    <path
      d="M8.23438 18.8301H13.0548C13.5563 18.8301 13.963 18.4234 13.963 17.9219C13.963 17.4203 13.5563 17.0137 13.0548 17.0137H8.23438C7.7328 17.0137 7.32617 17.4203 7.32617 17.9219C7.32617 18.4234 7.7328 18.8301 8.23438 18.8301Z"
      fill="white" />
    <path
      d="M26.1562 8.7793C26.041 8.7793 25.926 8.78341 25.8115 8.79159C25.4664 7.69103 24.8177 6.69812 23.9331 5.93438C22.7441 4.90769 21.2043 4.36597 19.6291 4.42422C18.0853 1.71711 15.1991 0 12.1094 0C8.2282 0 4.7938 2.66757 3.76281 6.40967C1.52905 7.40264 0.0605469 9.63325 0.0605469 12.1094C0.0605469 13.3893 0.445686 14.6194 1.17431 15.6668C1.76385 16.5143 2.54333 17.1939 3.45117 17.6591V30.0918C3.45117 30.5934 3.8578 31 4.35938 31H26.6406C27.1421 31 27.5488 30.5934 27.5488 30.0918V18.1374C29.5284 17.5359 30.9395 15.6938 30.9395 13.5625C30.9395 10.925 28.7937 8.7793 26.1562 8.7793ZM25.7324 29.1836H5.26758V22.7085H25.7324V29.1836ZM25.7324 20.8853H5.26758V14.4707H25.7324V20.8853ZM27.5488 16.1819V13.5625C27.5488 13.0609 27.1421 12.6543 26.6406 12.6543H4.35938C3.8578 12.6543 3.45117 13.0609 3.45117 13.5625V15.4962C2.46698 14.6737 1.87695 13.45 1.87695 12.1094C1.87695 10.2339 3.06512 8.55733 4.83358 7.93745C5.13201 7.83283 5.35452 7.58059 5.421 7.2715C6.10137 4.11059 8.91426 1.81641 12.1094 1.81641C14.7134 1.81641 17.1379 3.36943 18.286 5.7729C18.457 6.13092 18.8406 6.33641 19.2336 6.28053C19.4395 6.25122 19.6501 6.23633 19.8594 6.23633C22.0516 6.23633 23.888 7.80534 24.226 9.96704C24.266 10.2229 24.4133 10.4495 24.6308 10.5898C24.8483 10.7302 25.1155 10.771 25.3651 10.7021C25.6209 10.6315 25.8871 10.5957 26.1562 10.5957C27.7921 10.5957 29.123 11.9266 29.123 13.5625C29.123 14.6857 28.4915 15.6798 27.5488 16.1819Z"
      fill="white" />
    <path
      d="M18.8906 18.8301C19.3922 18.8301 19.7988 18.4235 19.7988 17.9219C19.7988 17.4203 19.3922 17.0137 18.8906 17.0137C18.389 17.0137 17.9824 17.4203 17.9824 17.9219C17.9824 18.4235 18.389 18.8301 18.8906 18.8301Z"
      fill="white" />
    <path
      d="M22.7656 18.8301C23.2672 18.8301 23.6738 18.4235 23.6738 17.9219C23.6738 17.4203 23.2672 17.0137 22.7656 17.0137C22.264 17.0137 21.8574 17.4203 21.8574 17.9219C21.8574 18.4235 22.264 18.8301 22.7656 18.8301Z"
      fill="white" />
    <path
      d="M18.8906 27.0645C19.3922 27.0645 19.7988 26.6578 19.7988 26.1562C19.7988 25.6547 19.3922 25.248 18.8906 25.248C18.389 25.248 17.9824 25.6547 17.9824 26.1562C17.9824 26.6578 18.389 27.0645 18.8906 27.0645Z"
      fill="white" />
    <path
      d="M22.7656 27.0645C23.2672 27.0645 23.6738 26.6578 23.6738 26.1562C23.6738 25.6547 23.2672 25.248 22.7656 25.248C22.264 25.248 21.8574 25.6547 21.8574 26.1562C21.8574 26.6578 22.264 27.0645 22.7656 27.0645Z"
      fill="white" />
  </g>
  <defs>
    <clipPath id="clip0_612_1337">
      <rect width="31" height="31" fill="white" />
    </clipPath>
  </defs>
</svg>
  