<svg width="28" height="28" viewBox="0 0 28 28" fill="none" xmlns="http://www.w3.org/2000/svg">
  <g clip-path="url(#clip0_514_1448)">
    <path
      d="M24.9922 18.1411C23.6181 18.1411 22.4571 19.0677 22.099 20.3286H19.1953V17.1264H22.1601C25.3803 17.1264 28 14.5066 28 11.2865C28 8.70461 26.2876 6.4365 23.8567 5.69778C23.1218 2.75538 20.4658 0.645043 17.3896 0.645043C16.1972 0.645043 15.0549 0.95255 14.0468 1.54006C12.9791 0.563667 11.5791 0.015152 10.1082 0.015152C6.95313 0.015152 4.3744 2.53028 4.27148 5.66071C1.77439 6.35868 0 8.645 0 11.2865C0 14.5066 2.61975 17.1264 5.83991 17.1264H8.80469V20.3286H5.901C5.54296 19.0677 4.38195 18.1411 3.00781 18.1411C1.3493 18.1411 0 19.4904 0 21.1489C0 22.8074 1.3493 24.1567 3.00781 24.1567C4.38195 24.1567 5.54291 23.2302 5.901 21.9692H9.625C10.078 21.9692 10.4453 21.6019 10.4453 21.1489V17.1264H13.1797V22.0839C11.9188 22.4419 10.9922 23.6029 10.9922 24.977C10.9922 26.6355 12.3415 27.9849 14 27.9849C15.6585 27.9849 17.0078 26.6355 17.0078 24.977C17.0078 23.6029 16.0812 22.4419 14.8203 22.0839V17.1264H17.5547V21.1489C17.5547 21.6019 17.922 21.9692 18.375 21.9692H22.099C22.457 23.2302 23.6181 24.1567 24.9922 24.1567C26.6507 24.1567 28 22.8074 28 21.1489C28 19.4904 26.6507 18.1411 24.9922 18.1411ZM3.00781 22.5161C2.25395 22.5161 1.64062 21.9028 1.64062 21.1489C1.64062 20.395 2.25395 19.7817 3.00781 19.7817C3.76168 19.7817 4.375 20.395 4.375 21.1489C4.375 21.9028 3.76168 22.5161 3.00781 22.5161ZM15.3672 24.977C15.3672 25.7309 14.7539 26.3442 14 26.3442C13.2461 26.3442 12.6328 25.7309 12.6328 24.977C12.6328 24.2232 13.2461 23.6099 14 23.6099C14.7539 23.6099 15.3672 24.2232 15.3672 24.977ZM5.83991 15.4858C3.52445 15.4858 1.64062 13.602 1.64062 11.2865C1.64062 9.21692 3.1832 7.43067 5.22867 7.13153C5.66032 7.06842 5.96701 6.6785 5.92676 6.24417C5.91489 6.11603 5.90887 5.98511 5.90887 5.85501C5.90887 3.5396 7.7927 1.65583 10.1082 1.65583C11.3436 1.65583 12.5086 2.19286 13.3044 3.12922C13.5838 3.45795 14.07 3.51406 14.417 3.25768C15.2773 2.62178 16.3052 2.28567 17.3896 2.28567C19.8849 2.28567 21.96 4.11655 22.3479 6.49825C22.4027 6.83501 22.6604 7.10265 22.9948 7.17036C24.9443 7.56503 26.3593 9.29606 26.3593 11.2865C26.3593 13.602 24.4755 15.4858 22.16 15.4858H5.83991ZM24.9922 22.5161C24.2383 22.5161 23.625 21.9028 23.625 21.1489C23.625 20.395 24.2383 19.7817 24.9922 19.7817C25.7461 19.7817 26.3594 20.395 26.3594 21.1489C26.3594 21.9028 25.7461 22.5161 24.9922 22.5161Z"
      fill="white" />
  </g>
  <defs>
    <clipPath id="clip0_514_1448">
      <rect width="28" height="28" fill="white" />
    </clipPath>
  </defs>
</svg>
  