<svg width="31" height="31" viewBox="0 0 31 31" fill="none" xmlns="http://www.w3.org/2000/svg">
  <g clip-path="url(#clip0_472_1437)">
    <path
      d="M11.8673 10.8984V12.7148H10.105C9.85444 12.7148 9.61504 12.8183 9.44339 13.0008C9.2718 13.1833 9.18316 13.4286 9.19848 13.6787C9.39689 16.9116 10.1188 19.4368 11.3442 21.184C12.4429 22.7505 13.9188 23.6133 15.5001 23.6133C17.0813 23.6133 18.5573 22.7505 19.656 21.184C20.8814 19.4368 21.6033 16.9117 21.8017 13.6787C21.817 13.4286 21.7284 13.1834 21.5568 13.0008C21.3851 12.8183 21.1457 12.7148 20.8952 12.7148H19.1329V10.8984C19.1329 8.8953 17.5032 7.26562 15.5001 7.26562C13.4969 7.26562 11.8673 8.8953 11.8673 10.8984ZM15.5001 21.7969C13.7631 21.7969 11.6326 19.8715 11.0895 14.5312H19.9106C19.3675 19.8715 17.237 21.7969 15.5001 21.7969ZM17.3165 10.8984V12.7148H13.6837V10.8984C13.6837 9.89687 14.4985 9.08203 15.5001 9.08203C16.5016 9.08203 17.3165 9.89687 17.3165 10.8984Z"
      fill="white" />
    <path
      d="M15.5 16.3477C14.9984 16.3477 14.5918 16.7543 14.5918 17.2559V19.0723C14.5918 19.5738 14.9984 19.9805 15.5 19.9805C16.0016 19.9805 16.4082 19.5738 16.4082 19.0723V17.2559C16.4082 16.7543 16.0016 16.3477 15.5 16.3477Z"
      fill="white" />
    <path
      d="M28.4682 3.72938L15.7533 0.0360251C15.5879 -0.0120491 15.4121 -0.0120491 15.2467 0.0360251L2.53183 3.72938C2.14384 3.84212 1.87695 4.19753 1.87695 4.60156V13.1748C1.87695 21.4371 7.36056 28.7108 15.2505 30.9651C15.332 30.9884 15.416 31 15.5 31C15.584 31 15.668 30.9884 15.7495 30.9651C23.6161 28.7175 29.123 21.4574 29.123 13.1748V4.60156C29.123 4.19753 28.8562 3.84212 28.4682 3.72938ZM27.3066 13.1748C27.3066 20.5056 22.4646 27.035 15.5 29.1451C8.53535 27.035 3.69336 20.5056 3.69336 13.1748V5.2835L15.5 1.85395L27.3066 5.2835V13.1748Z"
      fill="white" />
  </g>
  <defs>
    <clipPath id="clip0_472_1437">
      <rect width="31" height="31" fill="white" />
    </clipPath>
  </defs>
</svg>
  