<svg width="27" height="30" viewBox="0 0 27 30" fill="none" xmlns="http://www.w3.org/2000/svg">
  <path
    d="M23.0747 6.53289C24.9644 6.53289 26.5019 5.10827 26.5019 3.35685C26.5019 1.60543 24.9648 0.180054 23.0747 0.180054C21.185 0.180054 19.6476 1.60505 19.6476 3.35647C19.6476 4.18791 19.9969 4.94373 20.5631 5.51031L15.345 11.1305C14.7796 10.7752 14.1113 10.5807 13.4242 10.5807C12.5156 10.5807 11.6583 10.9094 11.0187 11.4927L6.00685 7.74471C6.2631 7.35027 6.41316 6.89047 6.41316 6.39761C6.41316 4.95057 5.14298 3.77333 3.5817 3.77333C2.02042 3.77333 0.75024 4.95057 0.75024 6.39761C0.75024 7.84465 2.02042 9.02189 3.5817 9.02189C4.33036 9.02189 5.01014 8.74905 5.51731 8.30749L10.5312 12.0566C10.1876 12.5612 9.99902 13.1517 9.99902 13.7552C9.99902 14.5866 10.3455 15.3698 10.9592 15.9607L6.2467 20.2114C5.64728 19.8451 4.93593 19.6448 4.20859 19.6448C2.16269 19.6448 0.497681 21.1872 0.497681 23.0838C0.497681 24.98 2.16228 26.5228 4.20859 26.5228C6.2549 26.5228 7.91909 24.9804 7.91909 23.0838C7.91909 22.1714 7.53451 21.313 6.8535 20.6731L11.5648 16.4235C12.1179 16.7538 12.7657 16.9343 13.4246 16.9343C13.4873 16.9343 13.5431 16.9301 13.6017 16.927L14.8259 23.9738C13.493 24.3393 12.5168 25.4827 12.5168 26.8348C12.5168 28.4809 13.9617 29.8197 15.7378 29.8197C17.5139 29.8197 18.9583 28.4809 18.9583 26.8348C18.9583 25.1886 17.5139 23.8499 15.7378 23.8499C15.6898 23.8499 15.6431 23.8548 15.5955 23.8567L14.3704 16.8062C14.9498 16.6542 15.4709 16.3631 15.8854 15.9596L21.5799 20.0031C21.3708 20.3524 21.2506 20.7533 21.2506 21.1804C21.2506 22.5225 22.4286 23.6143 23.8763 23.6143C25.3244 23.6143 26.5023 22.5225 26.5023 21.1804C26.5023 19.8386 25.3244 18.7469 23.8763 18.7469C23.1699 18.7469 22.5286 19.0083 22.0563 19.4305L16.3593 15.3854C16.6791 14.8975 16.8489 14.3411 16.8489 13.7552C16.8489 12.9526 16.5205 12.1858 15.937 11.6002L21.1518 5.98379C21.7008 6.33035 22.3626 6.53289 23.0747 6.53289Z"
    fill="white" />
</svg>
  