<svg width="28" height="28" viewBox="0 0 28 28" fill="none" xmlns="http://www.w3.org/2000/svg">
  <path
    d="M25.7598 6.40363C24.5587 4.54831 22.9266 2.99097 21.0132 1.88114C18.8913 0.650508 16.4662 0 14 0C11.5338 0 9.10875 0.650508 6.98688 1.88114C5.07336 2.99097 3.44132 4.54831 2.24022 6.40363C0.997445 6.44815 0 7.47239 0 8.72577V19.2743C0 20.5277 0.997445 21.5519 2.24016 21.5964C3.44132 23.4517 5.07336 25.009 6.98682 26.1189C9.10875 27.3495 11.5338 28 14 28C16.4662 28 18.8912 27.3495 21.0131 26.1189C22.9266 25.009 24.5586 23.4517 25.7598 21.5964C27.0026 21.5519 28 20.5276 28 19.2742V8.72577C28 7.47239 27.0026 6.44815 25.7598 6.40363ZM23.6065 6.4015H19.466C18.9933 4.7653 18.3679 3.36503 17.6368 2.30923C19.9734 3.04194 22.0674 4.46496 23.6065 6.4015ZM14 1.75C15.3479 1.75 16.7263 3.54134 17.6382 6.4015H10.3618C11.2737 3.54134 12.652 1.75 14 1.75ZM10.3631 2.30929C9.63194 3.36509 9.00665 4.7653 8.53398 6.4015H4.39359C5.93255 4.46496 8.02654 3.04199 10.3631 2.30929ZM4.39354 21.5985H8.53393C9.00659 23.2347 9.63195 24.635 10.3631 25.6907C8.02654 24.958 5.93255 23.535 4.39354 21.5985ZM14 26.25C12.652 26.25 11.2737 24.4587 10.3618 21.5985H17.6383C16.7263 24.4587 15.348 26.25 14 26.25ZM17.6368 25.6907C18.368 24.6349 18.9934 23.2347 19.466 21.5985H23.6064C22.0674 23.535 19.9734 24.958 17.6368 25.6907ZM26.25 19.2742C26.25 19.5855 25.987 19.8484 25.6757 19.8484H2.32427C2.01299 19.8484 1.75 19.5855 1.75 19.2742V8.72577C1.75 8.41449 2.01299 8.15156 2.32427 8.15156H25.2701C25.2715 8.15156 25.2729 8.15166 25.2743 8.15166C25.2756 8.15166 25.277 8.15156 25.2784 8.15156H25.6758C25.9871 8.15156 26.2501 8.41455 26.2501 8.72577V19.2742H26.25ZM6.50672 9.88165H4.04627C3.563 9.88165 3.17127 10.2734 3.17127 10.7566V17.2434C3.17127 17.7266 3.563 18.1184 4.04627 18.1184H6.50672C8.34591 18.1184 9.84216 16.622 9.84216 14.7829V13.2171C9.84222 11.378 8.34591 9.88165 6.50672 9.88165ZM8.09222 14.7829C8.09222 15.6571 7.38101 16.3684 6.50677 16.3684H4.92127V11.6316H6.50672C7.38095 11.6316 8.09216 12.3429 8.09216 13.2171V14.7829H8.09222ZM24.8287 15.6216C24.8287 16.9983 23.7087 18.1184 22.3321 18.1184H20.6545C19.8444 18.1184 19.0809 17.7208 18.6121 17.0549C18.3339 16.6597 18.4288 16.1139 18.8239 15.8357C19.2192 15.5576 19.7649 15.6524 20.0431 16.0476C20.1845 16.2485 20.413 16.3684 20.6545 16.3684H22.3321C22.7438 16.3684 23.0787 16.0334 23.0787 15.6218C23.0787 15.21 22.7438 14.8751 22.3321 14.8751H20.6545C19.2778 14.8751 18.1578 13.7551 18.1578 12.3784C18.1578 11.0018 19.2778 9.8817 20.6545 9.8817H22.3321C23.2631 9.8817 24.111 10.3962 24.5449 11.2244C24.7692 11.6525 24.6039 12.1813 24.1759 12.4056C23.7478 12.6299 23.219 12.4646 22.9947 12.0366C22.8639 11.7869 22.61 11.6317 22.3321 11.6317H20.6545C20.2428 11.6317 19.9078 11.9667 19.9078 12.3784C19.9078 12.7901 20.2428 13.1251 20.6545 13.1251H22.3321C23.7087 13.125 24.8287 14.245 24.8287 15.6216ZM17.3354 10.7566V17.2434C17.3354 17.6191 17.0955 17.9529 16.7395 18.0727C16.6478 18.1035 16.5537 18.1184 16.4606 18.1184C16.192 18.1184 15.932 17.9945 15.7633 17.7722L12.4146 13.3578V17.2434C12.4146 17.7266 12.0228 18.1184 11.5396 18.1184C11.0563 18.1184 10.6646 17.7266 10.6646 17.2434V10.7566C10.6646 10.3809 10.9045 10.0471 11.2605 9.92731C11.6168 9.80749 12.0095 9.92846 12.2367 10.2278L15.5854 14.6422V10.7566C15.5854 10.2734 15.9772 9.88165 16.4604 9.88165C16.9437 9.88165 17.3354 10.2734 17.3354 10.7566Z"
    fill="white" />
</svg>
  