<svg width="27" height="33" viewBox="0 0 27 33" fill="none" xmlns="http://www.w3.org/2000/svg">
  <g clip-path="url(#clip0_762_1838)">
    <path
      d="M5.08562 14.4514L0.215753 10.7353C0.15411 10.6718 0 10.513 0 10.3224C0 10.2589 0.0616438 10.0366 0.215753 9.90953L5.08562 6.19345C5.4863 5.9076 6.0411 5.9076 6.44178 6.19345L11.1884 9.90953C11.25 9.97305 11.4041 10.1319 11.4041 10.3224C11.4041 10.3859 11.3425 10.6083 11.1884 10.7353L6.44178 14.4514C6.0411 14.7372 5.36301 14.7372 5.08562 14.4514Z"
      fill="#F4FFE2" />
    <path
      d="M5.08562 26.4572L0.215753 22.7411C0.15411 22.6776 0 22.5188 0 22.3282C0 22.2647 0.0616438 22.0424 0.215753 21.9153L5.08562 18.1993C5.4863 17.9134 6.0411 17.9134 6.44178 18.1993L11.1884 21.9153C11.25 21.9788 11.4041 22.1377 11.4041 22.3282C11.4041 22.3917 11.3425 22.6141 11.1884 22.7411L6.44178 26.4572C6.0411 26.8066 5.36301 26.8066 5.08562 26.4572Z"
      fill="white" />
    <path
      d="M12.8835 8.4485L8.1369 4.76419C7.92114 4.70067 7.92114 4.54186 7.92114 4.35129C7.92114 4.28777 7.98279 4.06544 8.1369 3.9384L12.8835 0.222323C13.2842 -0.0635284 13.839 -0.0635284 14.2396 0.222323L19.1095 3.9384C19.1711 4.00192 19.3253 4.16073 19.3253 4.35129C19.3253 4.41482 19.2636 4.63715 19.1095 4.76419L14.2396 8.48026C13.839 8.73435 13.1609 8.73435 12.8835 8.4485Z"
      fill="#FFFFF2" />
    <path
      d="M12.8835 20.6131L8.1369 16.897C7.92114 16.8335 7.92114 16.6747 7.92114 16.4841C7.92114 16.4206 7.98279 16.1983 8.1369 16.0712L12.8835 12.3551C13.2842 12.0693 13.839 12.0693 14.2396 12.3551L19.1095 16.0712C19.1711 16.1347 19.3253 16.2935 19.3253 16.4841C19.3253 16.5476 19.2636 16.77 19.1095 16.897L14.2396 20.6131C13.839 20.7401 13.1609 20.7401 12.8835 20.6131Z"
      fill="#DFFFFA" />
    <path
      d="M12.8835 32.8094L8.1369 29.0933C7.92114 29.0298 7.92114 28.871 7.92114 28.6804C7.92114 28.6169 7.98279 28.3946 8.1369 28.2675L12.8835 24.5832C13.2842 24.2974 13.839 24.2974 14.2396 24.5832L19.1095 28.2675C19.1711 28.3311 19.3253 28.4899 19.3253 28.6804C19.3253 28.744 19.2636 28.9663 19.1095 29.0933L14.2396 32.8094C13.839 33.0953 13.1609 33.0953 12.8835 32.8094Z"
      fill="#C1E8FF" />
    <path
      d="M20.6816 14.4514L15.8117 10.7353C15.7501 10.6718 15.5959 10.513 15.5959 10.3224C15.5959 10.2589 15.6576 10.0366 15.8117 9.90953L20.6816 6.19345C21.0822 5.9076 21.637 5.9076 22.0377 6.19345L26.7843 9.90953C26.8459 9.97305 27.0001 10.1319 27.0001 10.3224C27.0001 10.3859 26.9384 10.6083 26.7843 10.7353L22.0377 14.4514C21.637 14.7372 21.0206 14.7372 20.6816 14.4514Z"
      fill="#E8FFD6" />
    <path
      d="M20.6816 26.4572L15.8117 22.7411C15.7501 22.6776 15.5959 22.5188 15.5959 22.3282C15.5959 22.2647 15.6576 22.0424 15.8117 21.9153L20.6816 18.1993C21.0822 17.9134 21.637 17.9134 22.0377 18.1993L26.7843 21.9153C26.8459 21.9788 27.0001 22.1377 27.0001 22.3282C27.0001 22.3917 26.9384 22.6141 26.7843 22.7411L22.0377 26.4572C21.637 26.8066 21.0206 26.8066 20.6816 26.4572Z"
      fill="#FCFEFF" />
  </g>
  <defs>
    <clipPath id="clip0_762_1838">
      <rect width="27" height="33" fill="white" />
    </clipPath>
  </defs>
</svg>
  