<svg width="35" height="35" viewBox="0 0 35 35" fill="none" xmlns="http://www.w3.org/2000/svg">
  <path fill-rule="evenodd" clip-rule="evenodd"
    d="M17.9739 4.94572C17.6806 4.77637 17.3192 4.77637 17.0259 4.94572L10.378 8.78391C10.0847 8.95322 9.90405 9.26614 9.90405 9.60481V17.2812C9.90405 17.6198 10.0847 17.9328 10.378 18.1021L17.0259 21.9403C17.3192 22.1096 17.6806 22.1096 17.9739 21.9403L24.6218 18.1021C24.9151 17.9328 25.0957 17.6198 25.0957 17.2812V9.60481C25.0957 9.26614 24.9151 8.95322 24.6218 8.78391L17.9739 4.94572ZM11.7999 16.7339V11.2465L16.552 13.9902V19.4775L11.7999 16.7339ZM17.4999 12.3483L12.7479 9.60473L17.4999 6.86121L22.3126 9.63981L17.4999 12.3483ZM18.4478 13.9966L23.1999 11.3172V16.7339L18.4478 19.4775V13.9966Z"
    fill="white" />
  <path
    d="M4.8309 8.799C4.8309 7.7117 5.71232 6.83025 6.79965 6.83025H9.95315C10.4767 6.83025 10.9011 6.40588 10.9011 5.88233C10.9011 5.35883 10.4767 4.93442 9.95315 4.93442H6.79965C4.66531 4.93442 2.93506 6.66466 2.93506 8.799V21.9737C2.93506 24.108 4.66531 25.8383 6.79965 25.8383H16.5521V29.03H10.8136C10.2901 29.03 9.86569 29.4544 9.86569 29.9779C9.86569 30.5015 10.2901 30.9259 10.8136 30.9259H24.1867C24.7102 30.9259 25.1347 30.5015 25.1347 29.9779C25.1347 29.4544 24.7102 29.03 24.1867 29.03H18.4479V25.8383H28.2003C30.3347 25.8383 32.0649 24.108 32.0649 21.9737V8.799C32.0649 6.66466 30.3347 4.93442 28.2003 4.93442H25.033C24.5095 4.93442 24.0851 5.35883 24.0851 5.88233C24.0851 6.40588 24.5095 6.83025 25.033 6.83025H28.2003C29.2876 6.83025 30.1691 7.7117 30.1691 8.799V21.9737C30.1691 23.061 29.2876 23.9424 28.2003 23.9424H6.79965C5.71232 23.9424 4.8309 23.061 4.8309 21.9737V8.799Z"
    fill="white" />
</svg>
  