<svg width="35" height="35" viewBox="0 0 35 35" fill="none" xmlns="http://www.w3.org/2000/svg">
  <path
    d="M15.7739 6.93656C15.3474 6.51 15.3463 5.81765 15.7739 5.39L16.7889 4.375L15.7739 3.36C15.3474 2.93234 15.3474 2.24 15.7739 1.81344C16.2016 1.38578 16.8939 1.38687 17.3205 1.81344L19.3057 3.79859C19.6239 4.11687 19.6239 4.63312 19.3057 4.9514L17.3205 6.93656C16.8939 7.36422 16.2005 7.36422 15.7739 6.93656Z"
    fill="white" />
  <path
    d="M19.2248 28.0634C19.6513 28.49 19.6524 29.1823 19.2248 29.61L18.2098 30.625L19.2248 31.64C19.6513 32.0676 19.6513 32.76 19.2248 33.1865C18.7971 33.6142 18.1048 33.6131 17.6782 33.1865L15.6931 31.2014C15.3748 30.8831 15.3748 30.3669 15.6931 30.0486L17.6782 28.0634C18.1048 27.6358 18.7982 27.6358 19.2248 28.0634Z"
    fill="white" />
  <path
    d="M17.5001 31.7187V29.5312C24.1337 29.5312 29.5314 24.1336 29.5314 17.5C29.5314 12.7728 26.7368 8.48639 22.4865 6.54717C21.9834 6.31749 21.7614 5.72139 21.9484 5.20077C22.1682 4.59155 22.8661 4.31264 23.4545 4.58499C28.4431 6.88952 31.7178 11.9361 31.7178 17.5C31.7178 25.34 25.339 31.7187 17.499 31.7187H17.5001Z"
    fill="white" />
  <path
    d="M12.8581 29.727C12.6284 30.333 11.9262 30.6009 11.3422 30.3187C6.47609 27.9716 3.28125 22.9633 3.28125 17.5C3.28125 9.66 9.66 3.28125 17.5 3.28125V5.46875C10.8664 5.46875 5.46875 10.8664 5.46875 17.5C5.46875 22.143 8.19328 26.3966 12.3397 28.3719C12.8395 28.6103 13.055 29.2097 12.8581 29.727Z"
    fill="white" />
  <path
    d="M17.5 26.5005C12.5376 26.5005 8.49951 22.4634 8.49951 17.5C8.49951 12.5366 12.5365 8.49954 17.5 8.49954C22.4634 8.49954 26.5005 12.5366 26.5005 17.5C26.5005 22.4634 22.4634 26.5005 17.5 26.5005ZM17.5 10.6881C13.7429 10.6881 10.687 13.7441 10.687 17.5011C10.687 21.2581 13.7429 24.3141 17.5 24.3141C21.257 24.3141 24.3129 21.2581 24.3129 17.5011C24.3129 13.7441 21.257 10.6881 17.5 10.6881Z"
    fill="white" />
  <path
    d="M17.5 25.8748C14.8761 25.8748 13.6807 21.3861 13.6807 17.2156C13.6807 13.0451 14.8761 8.5553 17.5 8.5553C20.1239 8.5553 21.3183 13.044 21.3183 17.2156C21.3183 21.3872 20.1229 25.8748 17.5 25.8748ZM17.4814 10.7406C17.0625 10.8719 15.8671 13.0615 15.8671 17.2156C15.8671 21.3697 17.0625 23.5583 17.5175 23.6895C17.9354 23.5572 19.1308 21.3664 19.1308 17.2156C19.1308 13.0648 17.9354 10.873 17.4814 10.7406Z"
    fill="white" />
  <path d="M9.59448 16.4062H25.4068V18.5938H9.59448V16.4062Z" fill="white" />
</svg>
  