<svg width="32" height="30" viewBox="0 0 32 30" fill="none" xmlns="http://www.w3.org/2000/svg">
  <path
    d="M12 14.0625H6C5.20435 14.0625 4.44129 13.7662 3.87868 13.2387C3.31607 12.7113 3 11.9959 3 11.25V5.625C3 4.87908 3.31607 4.16371 3.87868 3.63626C4.44129 3.10882 5.20435 2.8125 6 2.8125H12C12.7956 2.8125 13.5587 3.10882 14.1213 3.63626C14.6839 4.16371 15 4.87908 15 5.625V11.25C15 11.9959 14.6839 12.7113 14.1213 13.2387C13.5587 13.7662 12.7956 14.0625 12 14.0625ZM6 4.6875C5.73478 4.6875 5.48043 4.78627 5.29289 4.96209C5.10536 5.1379 5 5.37636 5 5.625V11.25C5 11.4986 5.10536 11.7371 5.29289 11.9129C5.48043 12.0887 5.73478 12.1875 6 12.1875H12C12.2652 12.1875 12.5196 12.0887 12.7071 11.9129C12.8946 11.7371 13 11.4986 13 11.25V5.625C13 5.37636 12.8946 5.1379 12.7071 4.96209C12.5196 4.78627 12.2652 4.6875 12 4.6875H6Z"
    fill="white" />
  <path
    d="M26 14.0625H20C19.2044 14.0625 18.4413 13.7662 17.8787 13.2387C17.3161 12.7113 17 11.9959 17 11.25V5.625C17 4.87908 17.3161 4.16371 17.8787 3.63626C18.4413 3.10882 19.2044 2.8125 20 2.8125H26C26.7956 2.8125 27.5587 3.10882 28.1213 3.63626C28.6839 4.16371 29 4.87908 29 5.625V11.25C29 11.9959 28.6839 12.7113 28.1213 13.2387C27.5587 13.7662 26.7956 14.0625 26 14.0625ZM20 4.6875C19.7348 4.6875 19.4804 4.78627 19.2929 4.96209C19.1054 5.1379 19 5.37636 19 5.625V11.25C19 11.4986 19.1054 11.7371 19.2929 11.9129C19.4804 12.0887 19.7348 12.1875 20 12.1875H26C26.2652 12.1875 26.5196 12.0887 26.7071 11.9129C26.8946 11.7371 27 11.4986 27 11.25V5.625C27 5.37636 26.8946 5.1379 26.7071 4.96209C26.5196 4.78627 26.2652 4.6875 26 4.6875H20Z"
    fill="white" />
  <path
    d="M12 27.1875H6C5.20435 27.1875 4.44129 26.8912 3.87868 26.3637C3.31607 25.8363 3 25.1209 3 24.375V18.75C3 18.0041 3.31607 17.2887 3.87868 16.7613C4.44129 16.2338 5.20435 15.9375 6 15.9375H12C12.7956 15.9375 13.5587 16.2338 14.1213 16.7613C14.6839 17.2887 15 18.0041 15 18.75V24.375C15 25.1209 14.6839 25.8363 14.1213 26.3637C13.5587 26.8912 12.7956 27.1875 12 27.1875ZM6 17.8125C5.73478 17.8125 5.48043 17.9113 5.29289 18.0871C5.10536 18.2629 5 18.5014 5 18.75V24.375C5 24.6236 5.10536 24.8621 5.29289 25.0379C5.48043 25.2137 5.73478 25.3125 6 25.3125H12C12.2652 25.3125 12.5196 25.2137 12.7071 25.0379C12.8946 24.8621 13 24.6236 13 24.375V18.75C13 18.5014 12.8946 18.2629 12.7071 18.0871C12.5196 17.9113 12.2652 17.8125 12 17.8125H6Z"
    fill="white" />
  <path
    d="M23 27.1875C21.8133 27.1875 20.6533 26.8576 19.6666 26.2395C18.6799 25.6214 17.9109 24.7429 17.4567 23.7151C17.0026 22.6873 16.8838 21.5563 17.1153 20.4651C17.3468 19.374 17.9182 18.3717 18.7574 17.585C19.5965 16.7984 20.6656 16.2626 21.8295 16.0456C22.9933 15.8285 24.1997 15.9399 25.2961 16.3657C26.3925 16.7914 27.3295 17.5124 27.9888 18.4374C28.6481 19.3624 29 20.45 29 21.5625C28.9984 23.0539 28.3658 24.4838 27.2409 25.5383C26.116 26.5929 24.5908 27.186 23 27.1875ZM23 17.8125C22.2089 17.8125 21.4355 18.0324 20.7777 18.4445C20.1199 18.8565 19.6072 19.4422 19.3045 20.1274C19.0017 20.8127 18.9225 21.5667 19.0769 22.2941C19.2312 23.0215 19.6122 23.6897 20.1716 24.2142C20.731 24.7386 21.4437 25.0958 22.2196 25.2404C22.9956 25.3851 23.7998 25.3109 24.5307 25.0271C25.2616 24.7432 25.8864 24.2626 26.3259 23.6459C26.7654 23.0292 27 22.3042 27 21.5625C27 20.5679 26.5786 19.6141 25.8284 18.9109C25.0783 18.2076 24.0609 17.8125 23 17.8125Z"
    fill="white" />
</svg>
  