<svg width="29" height="29" viewBox="0 0 29 29" fill="none" xmlns="http://www.w3.org/2000/svg">
  <path
    d="M27.8638 21.1771C26.3161 21.9838 18.299 25.2802 16.5922 26.17C14.8854 27.0599 13.9372 27.0513 12.5888 26.4068C11.2406 25.7622 2.70889 22.316 1.17201 21.5813C0.403961 21.2143 0 20.9044 0 20.6116V17.6804C0 17.6804 11.1072 15.2624 12.9004 14.6191C14.6934 13.9757 15.3155 13.9525 16.8414 14.5114C18.3675 15.0706 27.4919 16.7168 29 17.2692L28.9993 20.159C28.9995 20.4487 28.6515 20.7666 27.8638 21.1771Z"
    fill="#D1D1D1" />
  <path
    d="M27.8632 18.2632C26.3157 19.0695 18.2987 22.366 16.5919 23.2557C14.8852 24.1458 13.9371 24.1371 12.5888 23.4925C11.2404 22.8484 2.7091 19.4016 1.17232 18.6674C-0.364451 17.9328 -0.396623 17.4272 1.11296 16.8361C2.62255 16.2448 11.1071 12.916 12.9004 12.2727C14.6935 11.6296 15.3155 11.6061 16.8414 12.1653C18.3674 12.7242 26.3365 15.8962 27.8444 16.4484C29.3528 17.0014 29.4107 17.4566 27.8632 18.2632Z"
    fill="white" />
  <path
    d="M27.8638 16.4342C26.3161 17.241 18.299 20.5372 16.5922 21.4274C14.8854 22.317 13.9372 22.3084 12.5888 21.6638C11.2404 21.0196 2.70889 17.573 1.17201 16.8383C0.403961 16.4713 0 16.1618 0 15.869V12.9374C0 12.9374 11.1072 10.5195 12.9004 9.8762C14.6934 9.23287 15.3155 9.20954 16.8414 9.76858C18.3676 10.3276 27.492 11.9735 29 12.526L28.9993 15.4161C28.9995 15.7058 28.6515 16.0236 27.8638 16.4342Z"
    fill="#D1D1D1" />
  <path
    d="M27.8632 13.5202C26.3157 14.3268 18.2987 17.623 16.5919 18.5131C14.8852 19.4028 13.9371 19.3941 12.5888 18.7495C11.2404 18.1054 2.7091 14.6587 1.17232 13.9244C-0.364451 13.19 -0.396623 12.6843 1.11296 12.093C2.62255 11.502 11.1072 8.17302 12.9004 7.5298C14.6935 6.88659 15.3155 6.86326 16.8414 7.4223C18.3674 7.98123 26.3365 11.153 27.8444 11.7055C29.3528 12.2583 29.4107 12.7137 27.8632 13.5202Z"
    fill="white" />
  <path
    d="M27.8638 11.5154C26.3161 12.3219 18.299 15.6184 16.5922 16.5086C14.8854 17.3983 13.9372 17.3896 12.5888 16.745C11.2404 16.1008 2.70889 12.6541 1.17201 11.9198C0.403961 11.5524 0 11.2428 0 10.9503V8.01861C0 8.01861 11.0302 4.20009 12.8233 3.55688C14.6163 2.91344 15.6913 2.99794 17.2172 3.55687C18.7435 4.11591 27.492 7.05493 29 7.6074L28.9993 10.4974C28.9995 10.7869 28.6515 11.1047 27.8638 11.5154Z"
    fill="#D1D1D1" />
  <path fill-rule="evenodd" clip-rule="evenodd"
    d="M22.466 10.9899C24.8155 9.98022 27.1086 8.99479 27.8633 8.60147C29.4108 7.79491 29.3529 7.33941 27.8445 6.78705C27.0931 6.51176 24.7374 5.58611 22.3741 4.65743C19.9945 3.72238 17.6071 2.78425 16.8415 2.50377C15.3156 1.94473 14.6935 1.96784 12.9005 2.61116C11.2316 3.21 3.76664 6.13463 1.5229 7.01369C1.3558 7.07915 1.21766 7.13327 1.11303 7.17424C-0.396444 7.76546 -0.364386 8.27126 1.1725 9.00555C1.96549 9.38454 4.62122 10.4858 7.19128 11.5515C9.6015 12.5509 11.9364 13.519 12.5889 13.831C13.9371 14.4752 14.8853 14.4839 16.592 13.5942C17.4665 13.1384 19.9974 12.0508 22.466 10.9899ZM15.5505 6.0087L18.0438 5.74986L16.1104 5.02588L16.6229 3.79621L14.7268 4.41699L12.7155 3.63036L13.3601 4.81959L11.2118 5.59432L14.0909 5.85305L14.9924 7.35177L15.5505 6.0087ZM10.1903 10.3356L14.8435 12.2656L16.858 9.3121L10.1903 10.3356ZM11.956 7.87773C11.956 7.11489 10.3604 6.49638 8.39214 6.49638C6.42388 6.49638 4.82831 7.11489 4.82831 7.87773C4.82831 8.64068 6.42388 9.2592 8.39214 9.2592C10.3604 9.2592 11.956 8.64079 11.956 7.87773Z"
    fill="white" />
  <path d="M20.9905 6.11696L24.9367 7.67639L20.9939 9.23435L20.9905 6.11696Z" fill="#A0A0A0" />
  <path d="M16.6246 7.84393L20.9905 6.11696L20.9939 9.23435L20.5658 9.40178L16.6246 7.84393Z"
    fill="#D1D1D1" />
  <rect x="1" y="19" width="27" height="9" rx="4.5" fill="white" />
  <rect x="0.5" y="18.5" width="28" height="10" rx="5" stroke="black" stroke-opacity="0.18" />
  <path
    d="M5.32954 26V21.1H6.26754L9.15854 24.628H8.70354V21.1H9.82354V26H8.89254L5.99454 22.472H6.44954V26H5.32954ZM12.6979 26.056C12.2965 26.056 11.9395 25.972 11.6269 25.804C11.3189 25.636 11.0739 25.4073 10.8919 25.118C10.7145 24.824 10.6259 24.4903 10.6259 24.117C10.6259 23.739 10.7145 23.4053 10.8919 23.116C11.0739 22.822 11.3189 22.5933 11.6269 22.43C11.9395 22.262 12.2965 22.178 12.6979 22.178C13.0945 22.178 13.4492 22.262 13.7619 22.43C14.0745 22.5933 14.3195 22.8197 14.4969 23.109C14.6742 23.3983 14.7629 23.7343 14.7629 24.117C14.7629 24.4903 14.6742 24.824 14.4969 25.118C14.3195 25.4073 14.0745 25.636 13.7619 25.804C13.4492 25.972 13.0945 26.056 12.6979 26.056ZM12.6979 25.16C12.8799 25.16 13.0432 25.118 13.1879 25.034C13.3325 24.95 13.4469 24.831 13.5309 24.677C13.6149 24.5183 13.6569 24.3317 13.6569 24.117C13.6569 23.8977 13.6149 23.711 13.5309 23.557C13.4469 23.403 13.3325 23.284 13.1879 23.2C13.0432 23.116 12.8799 23.074 12.6979 23.074C12.5159 23.074 12.3525 23.116 12.2079 23.2C12.0632 23.284 11.9465 23.403 11.8579 23.557C11.7739 23.711 11.7319 23.8977 11.7319 24.117C11.7319 24.3317 11.7739 24.5183 11.8579 24.677C11.9465 24.831 12.0632 24.95 12.2079 25.034C12.3525 25.118 12.5159 25.16 12.6979 25.16ZM17.1098 26.056C16.7551 26.056 16.4354 25.9767 16.1508 25.818C15.8661 25.6547 15.6398 25.4283 15.4718 25.139C15.3084 24.8497 15.2268 24.509 15.2268 24.117C15.2268 23.7203 15.3084 23.3773 15.4718 23.088C15.6398 22.7987 15.8661 22.5747 16.1508 22.416C16.4354 22.2573 16.7551 22.178 17.1098 22.178C17.4271 22.178 17.7048 22.248 17.9428 22.388C18.1808 22.528 18.3651 22.7403 18.4958 23.025C18.6264 23.3097 18.6918 23.6737 18.6918 24.117C18.6918 24.5557 18.6288 24.9197 18.5028 25.209C18.3768 25.4937 18.1948 25.706 17.9568 25.846C17.7234 25.986 17.4411 26.056 17.1098 26.056ZM17.2988 25.16C17.4761 25.16 17.6371 25.118 17.7818 25.034C17.9264 24.95 18.0408 24.831 18.1248 24.677C18.2134 24.5183 18.2578 24.3317 18.2578 24.117C18.2578 23.8977 18.2134 23.711 18.1248 23.557C18.0408 23.403 17.9264 23.284 17.7818 23.2C17.6371 23.116 17.4761 23.074 17.2988 23.074C17.1168 23.074 16.9534 23.116 16.8088 23.2C16.6641 23.284 16.5474 23.403 16.4588 23.557C16.3748 23.711 16.3328 23.8977 16.3328 24.117C16.3328 24.3317 16.3748 24.5183 16.4588 24.677C16.5474 24.831 16.6641 24.95 16.8088 25.034C16.9534 25.118 17.1168 25.16 17.2988 25.16ZM18.2858 26V25.23L18.3068 24.11L18.2368 22.997V20.806H19.3288V26H18.2858ZM22.2084 26.056C21.7791 26.056 21.4011 25.972 21.0744 25.804C20.7524 25.636 20.5028 25.4073 20.3254 25.118C20.1481 24.824 20.0594 24.4903 20.0594 24.117C20.0594 23.739 20.1458 23.4053 20.3184 23.116C20.4958 22.822 20.7361 22.5933 21.0394 22.43C21.3428 22.262 21.6858 22.178 22.0684 22.178C22.4371 22.178 22.7684 22.2573 23.0624 22.416C23.3611 22.57 23.5968 22.794 23.7694 23.088C23.9421 23.3773 24.0284 23.725 24.0284 24.131C24.0284 24.173 24.0261 24.222 24.0214 24.278C24.0168 24.3293 24.0121 24.3783 24.0074 24.425H20.9484V23.788H23.4334L23.0134 23.977C23.0134 23.781 22.9738 23.6107 22.8944 23.466C22.8151 23.3213 22.7054 23.2093 22.5654 23.13C22.4254 23.046 22.2621 23.004 22.0754 23.004C21.8888 23.004 21.7231 23.046 21.5784 23.13C21.4384 23.2093 21.3288 23.3237 21.2494 23.473C21.1701 23.6177 21.1304 23.7903 21.1304 23.991V24.159C21.1304 24.3643 21.1748 24.5463 21.2634 24.705C21.3568 24.859 21.4851 24.978 21.6484 25.062C21.8164 25.1413 22.0124 25.181 22.2364 25.181C22.4371 25.181 22.6121 25.1507 22.7614 25.09C22.9154 25.0293 23.0554 24.9383 23.1814 24.817L23.7624 25.447C23.5898 25.643 23.3728 25.7947 23.1114 25.902C22.8501 26.0047 22.5491 26.056 22.2084 26.056Z"
    fill="#363636" />
</svg>
  