<svg width="30" height="30" viewBox="0 0 30 30" fill="none" xmlns="http://www.w3.org/2000/svg">
  <path
    d="M27.381 6.52579C27.195 7.28479 27.099 8.07379 26.922 8.87779C24.672 8.58679 22.032 8.37379 19.062 8.26879C18.822 9.01879 18.597 9.75979 18.342 10.5638C23.307 10.8698 25.722 12.1778 27.153 13.7198C28.545 15.2798 28.839 17.0048 28.758 18.6038C28.578 21.2048 27.435 22.8488 25.86 24.0668C24.27 25.2668 22.341 25.8608 20.799 25.9928C18.528 26.1608 15.489 25.6208 14.841 25.2248C14.4388 24.3095 14.0428 23.3915 13.653 22.4708C13.554 22.2638 13.491 22.0508 13.773 21.8048C14.2133 21.3832 14.6523 20.9602 15.09 20.5358C15.288 20.3438 15.507 20.1638 15.672 20.4398C16.284 21.3818 16.857 22.2488 17.43 23.1098C18.081 24.0698 19.074 24.9488 21.246 24.8018C23.067 24.6398 24.456 23.2598 24.603 21.7418C24.762 18.9338 21.921 16.9418 14.532 16.3028C15.951 12.0248 17.334 7.88479 18.438 4.59379C20.193 4.67479 21.816 4.81879 23.37 5.01979C24.516 5.16379 25.584 5.43079 26.652 5.55379C24.7001 3.14611 22.0503 1.4022 19.0669 0.561849C16.0835 -0.278506 12.9131 -0.174039 9.99148 0.860885C7.06988 1.89581 4.54062 3.81037 2.75146 6.34132C0.962294 8.87226 0.0010922 11.8953 1.57433e-05 14.9948C-0.00462912 18.194 1.01865 21.3101 2.91902 23.8838C3.55502 23.8898 3.99602 23.7458 4.04402 23.4728C4.10102 23.1848 4.05302 22.7438 4.00202 22.2968C3.70202 19.3508 3.59702 16.1738 3.70802 12.9878C3.00774 13.0183 2.30772 13.0543 1.60802 13.0958C1.63802 12.5048 1.66802 11.9468 1.71602 11.3678C2.36402 11.3048 3.04802 11.2478 3.80102 11.1878C3.83102 10.6778 3.86702 10.1888 3.91202 9.69379C4.25102 6.65479 7.44902 4.79479 10.113 4.08079C10.922 3.8659 11.7498 3.72927 12.585 3.67279C12.792 3.66379 13.011 3.65779 13.233 3.65779C13.785 3.65779 14.343 3.70879 14.7 3.94879C15.276 4.38079 15.84 4.80979 16.446 5.28679C16.506 5.36779 16.572 5.49679 16.422 5.71579L15.6 6.68479C15.438 6.87979 15.168 6.82879 14.94 6.76879C14.466 6.52579 14.01 6.30079 13.545 6.07879C12.705 5.70379 11.835 5.31679 10.866 5.35879C10.263 5.40379 9.67802 6.02179 9.61802 6.86779C9.53402 8.15479 9.47701 9.47179 9.42902 10.9028C11.109 10.8548 12.783 10.8248 14.55 10.8158L14.547 11.9978C13.971 12.2558 13.428 12.5168 12.849 12.7778C11.658 12.7928 10.524 12.8018 9.38402 12.8228C9.32849 16.1285 9.37851 19.4352 9.53401 22.7378C9.56402 23.2088 9.58802 23.6888 9.72302 24.0068C9.88502 24.4118 10.821 24.7208 12.861 24.8378L12.891 25.8698C9.85407 25.7973 6.82626 25.5065 3.83102 24.9998C5.85743 27.2602 8.52202 28.8526 11.4727 29.5665C14.4233 30.2804 17.5211 30.0822 20.3567 28.9981C23.1923 27.9139 25.6322 25.995 27.354 23.4947C29.0758 20.9944 29.9985 18.0306 30 14.9948C30.0053 11.9707 29.092 9.01633 27.381 6.52279V6.52579Z"
    fill="white" />
</svg>
  