<svg width="34" height="34" viewBox="0 0 34 34" fill="none" xmlns="http://www.w3.org/2000/svg">
  <path d="M5.66667 25.5V8.5M28.3333 8.5V25.5" stroke="white" strokeWidth="1.5"
    stroke-lineCap="round" />
  <path
    d="M28.3333 17C28.3333 20.1309 23.2588 22.6667 17 22.6667C10.7412 22.6667 5.66667 20.1309 5.66667 17M28.3333 25.5C28.3333 28.6309 23.2588 31.1667 17 31.1667C10.7412 31.1667 5.66667 28.6309 5.66667 25.5M17 14.1667C23.2588 14.1667 28.3333 11.6309 28.3333 8.50004C28.3333 5.36921 23.2588 2.83337 17 2.83337C10.7412 2.83337 5.66667 5.36921 5.66667 8.50004C5.66667 11.6309 10.7412 14.1667 17 14.1667Z"
    stroke="white" strokeWidth="1.5" />
</svg>
  