<svg width="27" height="27" viewBox="0 0 27 27" fill="none" xmlns="http://www.w3.org/2000/svg">
  <g clip-path="url(#clip0_478_1534)">
    <path
      d="M27 8.70117C27 8.38545 26.9388 8.07848 26.8181 7.78881C26.818 7.7886 26.8179 7.78834 26.8178 7.78813L24.1808 1.46021C23.8111 0.57317 22.9513 0 21.9903 0H5.00971C4.04873 0 3.1889 0.57317 2.81923 1.46021L0.181934 7.78876C0.0612246 8.07848 0 8.38545 0 8.70117V11.9707C0 12.578 0.229605 13.1325 0.606182 13.5527C0.229605 13.9729 0 14.5274 0 15.1348V18.2988C0 18.9062 0.229605 19.4607 0.606182 19.8809C0.229605 20.301 0 20.8555 0 21.4629V24.627C0 25.9355 1.06455 27 2.37305 27H24.627C25.9355 27 27 25.9355 27 24.627V21.4629C27 20.8555 26.7704 20.301 26.3938 19.8809C26.7704 19.4607 27 18.9062 27 18.2988V15.1348C27 14.5274 26.7704 13.9729 26.3938 13.5527C26.7704 13.1325 27 12.578 27 11.9707V8.70117ZM4.27955 2.06877C4.40279 1.77309 4.6894 1.58203 5.00971 1.58203H21.9903C22.3106 1.58203 22.5972 1.77309 22.7204 2.06877L24.4955 6.32812H2.50451L4.27955 2.06877ZM25.418 24.627C25.418 25.0631 25.0631 25.418 24.627 25.418H2.37305C1.93688 25.418 1.58203 25.0631 1.58203 24.627V21.4629C1.58203 21.0267 1.93688 20.6719 2.37305 20.6719H24.627C25.0631 20.6719 25.418 21.0267 25.418 21.4629V24.627ZM25.418 18.2988C25.418 18.735 25.0631 19.0898 24.627 19.0898H2.37305C1.93688 19.0898 1.58203 18.735 1.58203 18.2988V15.1348C1.58203 14.6986 1.93688 14.3438 2.37305 14.3438H24.627C25.0631 14.3438 25.418 14.6986 25.418 15.1348V18.2988ZM25.418 11.9707C25.418 12.4069 25.0631 12.7617 24.627 12.7617H2.37305C1.93688 12.7617 1.58203 12.4069 1.58203 11.9707V8.70117C1.58203 8.26126 1.93725 7.91016 2.37305 7.91016H24.627C25.0641 7.91016 25.418 8.26263 25.418 8.70117V11.9707Z"
      fill="white" />
    <path
      d="M23.0449 22.2539H8.70117C8.26432 22.2539 7.91016 22.6081 7.91016 23.0449C7.91016 23.4818 8.26432 23.8359 8.70117 23.8359H23.0449C23.4818 23.8359 23.8359 23.4818 23.8359 23.0449C23.8359 22.6081 23.4818 22.2539 23.0449 22.2539Z"
      fill="white" />
    <path
      d="M23.0449 9.49219H8.70117C8.26432 9.49219 7.91016 9.84635 7.91016 10.2832C7.91016 10.7201 8.26432 11.0742 8.70117 11.0742H23.0449C23.4818 11.0742 23.8359 10.7201 23.8359 10.2832C23.8359 9.84635 23.4818 9.49219 23.0449 9.49219Z"
      fill="white" />
    <path
      d="M3.95508 9.49219C3.51823 9.49219 3.16406 9.84635 3.16406 10.2832C3.16406 10.7201 3.51823 11.1797 3.95508 11.1797C4.39193 11.1797 4.74609 10.7201 4.74609 10.2832C4.74609 9.84635 4.39193 9.49219 3.95508 9.49219Z"
      fill="white" />
    <path
      d="M23.0449 15.9258H8.70117C8.26432 15.9258 7.91016 16.2799 7.91016 16.7168C7.91016 17.1536 8.26432 17.5078 8.70117 17.5078H23.0449C23.4818 17.5078 23.8359 17.1536 23.8359 16.7168C23.8359 16.2799 23.4818 15.9258 23.0449 15.9258Z"
      fill="white" />
    <path
      d="M3.95508 17.5078C4.39194 17.5078 4.74609 17.1537 4.74609 16.7168C4.74609 16.2799 4.39194 15.9258 3.95508 15.9258C3.51821 15.9258 3.16406 16.2799 3.16406 16.7168C3.16406 17.1537 3.51821 17.5078 3.95508 17.5078Z"
      fill="white" />
    <path
      d="M3.95508 23.8359C4.39194 23.8359 4.74609 23.4818 4.74609 23.0449C4.74609 22.6081 4.39194 22.2539 3.95508 22.2539C3.51821 22.2539 3.16406 22.6081 3.16406 23.0449C3.16406 23.4818 3.51821 23.8359 3.95508 23.8359Z"
      fill="white" />
  </g>
  <defs>
    <clipPath id="clip0_478_1534">
      <rect width="27" height="27" fill="white" />
    </clipPath>
  </defs>
</svg>
  