<svg width="31" height="31" viewBox="0 0 31 31" fill="none" xmlns="http://www.w3.org/2000/svg">
  <path
    d="M28.2395 11.483H26.818V6.66643C26.818 4.87052 25.3584 3.41095 23.5625 3.41095H3.25548C1.45957 3.41095 0 4.87052 0 6.66643V19.8152C0 21.6112 1.45957 23.0707 3.25548 23.0707H12.2667V25.3045H9.50624C8.87799 25.3045 8.36397 25.8185 8.36397 26.4468C8.36397 27.075 8.87799 27.589 9.50624 27.589H17.3181C17.9464 27.589 18.4604 27.075 18.4604 26.4468C18.4604 25.8185 17.9464 25.3045 17.3181 25.3045H14.5576V23.0707H17.1087C17.7369 23.0707 18.251 22.5567 18.251 21.9285C18.251 21.3002 17.7369 20.7862 17.1087 20.7862H3.25548C2.72242 20.7862 2.28454 20.3547 2.28454 19.8152V6.66643C2.28454 6.13337 2.71607 5.69549 3.25548 5.69549H23.5625C24.0956 5.69549 24.5335 6.12702 24.5335 6.66643V11.483H23.112C21.5889 11.483 20.3515 12.7205 20.3515 14.2435V24.8286C20.3515 26.3516 21.5889 27.589 23.112 27.589H28.2459C28.8741 27.589 29.3881 27.075 29.3881 26.4468C29.3881 25.8185 28.8741 25.3045 28.2459 25.3045H23.112C22.8518 25.3045 22.636 25.0951 22.636 24.8286V14.2435C22.636 13.9833 22.8454 13.7676 23.112 13.7676H28.2459C28.506 13.7676 28.7218 13.977 28.7218 14.2435V22.2331C28.7218 22.8613 29.2358 23.3753 29.8641 23.3753C30.4923 23.3753 31 22.8613 31 22.2331V14.2435C31 12.7205 29.7625 11.483 28.2395 11.483Z"
    fill="white" />
</svg>
  