<svg width="30" height="30" viewBox="0 0 30 30" fill="none" xmlns="http://www.w3.org/2000/svg">
  <g clip-path="url(#clip0_239_2599)">
    <path
      d="M28.3638 21.6771C26.8161 22.4838 18.799 25.7802 17.0922 26.67C15.3854 27.5599 14.4372 27.5513 13.0888 26.9067C11.7406 26.2622 3.20889 22.8159 1.67201 22.0813C0.903961 21.7143 0.5 21.4043 0.5 21.1116V18.1803C0.5 18.1803 11.6072 15.7624 13.4004 15.119C15.1934 14.4757 15.8155 14.4525 17.3414 15.0114C18.8675 15.5706 27.9919 17.2168 29.5 17.7691L29.4993 20.6589C29.4995 20.9487 29.1515 21.2666 28.3638 21.6771Z"
      fill="#D1D1D1" />
    <path
      d="M28.3632 18.7633C26.8157 19.5696 18.7988 22.8661 17.092 23.7558C15.3853 24.6458 14.4371 24.6371 13.0888 23.9926C11.7404 23.3484 3.20913 19.9016 1.67235 19.1674C0.135579 18.4328 0.103407 17.9272 1.61299 17.3361C3.12258 16.7448 11.6071 13.416 13.4005 12.7727C15.1935 12.1296 15.8155 12.1062 17.3414 12.6653C18.8674 13.2243 26.8365 16.3962 28.3444 16.9485C29.8529 17.5014 29.9108 17.9567 28.3632 18.7633Z"
      fill="white" />
    <path
      d="M28.3638 16.9341C26.8161 17.7409 18.799 21.0372 17.0922 21.9273C15.3854 22.8169 14.4372 22.8083 13.0888 22.1637C11.7404 21.5195 3.20889 18.0729 1.67201 17.3383C0.903961 16.9713 0.5 16.6618 0.5 16.369V13.4374C0.5 13.4374 11.6072 11.0195 13.4004 10.3762C15.1934 9.73283 15.8155 9.70949 17.3414 10.2685C18.8676 10.8276 27.992 12.4734 29.5 13.0259L29.4993 15.9161C29.4995 16.2057 29.1515 16.5236 28.3638 16.9341Z"
      fill="#D1D1D1" />
    <path
      d="M28.3632 14.0203C26.8157 14.8268 18.7988 18.1231 17.092 19.0132C15.3853 19.9029 14.4371 19.8941 13.0888 19.2496C11.7404 18.6055 3.20913 15.1588 1.67235 14.4245C0.135579 13.6901 0.103407 13.1844 1.61299 12.5931C3.12258 12.0021 11.6072 8.67307 13.4005 8.02986C15.1935 7.38665 15.8155 7.36331 17.3414 7.92235C18.8674 8.48128 26.8365 11.653 28.3444 12.2055C29.8529 12.7583 29.9108 13.2137 28.3632 14.0203Z"
      fill="white" />
    <path
      d="M28.3638 12.0154C26.8161 12.822 18.799 16.1184 17.0922 17.0086C15.3854 17.8983 14.4372 17.8896 13.0888 17.245C11.7404 16.6008 3.20889 13.1541 1.67201 12.4198C0.903961 12.0524 0.5 11.7428 0.5 11.4503V8.51862C0.5 8.51862 11.5302 4.7001 13.3233 4.05689C15.1163 3.41345 16.1913 3.49795 17.7172 4.05688C19.2435 4.61592 27.992 7.55494 29.5 8.10741L29.4993 10.9974C29.4995 11.2869 29.1515 11.6047 28.3638 12.0154Z"
      fill="#D1D1D1" />
    <path fill-rule="evenodd" clip-rule="evenodd"
      d="M22.966 11.4899C25.3155 10.4802 27.6086 9.49477 28.3632 9.10145C29.9108 8.29489 29.8529 7.83938 28.3444 7.28702C27.5931 7.01173 25.2374 6.08608 22.874 5.1574C20.4945 4.22235 18.107 3.28422 17.3414 3.00375C15.8155 2.4447 15.1935 2.46781 13.4005 3.11114C11.7315 3.70998 4.26661 6.6346 2.02287 7.51366C1.85577 7.57913 1.71763 7.63325 1.613 7.67422C0.103525 8.26543 0.135584 8.77123 1.67247 9.50552C2.46546 9.88451 5.12119 10.9857 7.69125 12.0514C10.1015 13.0508 12.4363 14.019 13.0888 14.331C14.4371 14.9752 15.3853 14.9839 17.092 14.0942C17.9665 13.6384 20.4974 12.5507 22.966 11.4899ZM16.0505 6.50868L18.5438 6.24983L16.6104 5.52585L17.1229 4.29618L15.2268 4.91696L13.2155 4.13034L13.8601 5.31956L11.7118 6.09429L14.5908 6.35303L15.4923 7.85174L16.0505 6.50868ZM10.6902 10.8356L15.3435 12.7655L17.358 9.81207L10.6902 10.8356ZM12.4559 8.3777C12.4559 7.61487 10.8604 6.99635 8.89211 6.99635C6.92385 6.99635 5.32828 7.61487 5.32828 8.3777C5.32828 9.14065 6.92385 9.75917 8.89211 9.75917C10.8604 9.75917 12.4559 9.14077 12.4559 8.3777Z"
      fill="white" />
    <path d="M21.4904 6.61693L25.4367 8.17636L21.4938 9.73432L21.4904 6.61693Z" fill="#A0A0A0" />
    <path d="M17.1246 8.34392L21.4905 6.61694L21.4939 9.73433L21.0658 9.90176L17.1246 8.34392Z"
      fill="#D1D1D1" />
  </g>
  <defs>
    <clipPath id="clip0_239_2599">
      <rect width="29" height="29" fill="white" transform="translate(0.5 0.5)" />
    </clipPath>
  </defs>
</svg>
  