<svg width="30" height="28" viewBox="0 0 30 28" fill="none" xmlns="http://www.w3.org/2000/svg">
  <path fill-rule="evenodd" clip-rule="evenodd"
    d="M6.08123 0H23.923C27.0467 0 29.4983 3.08106 29.4983 6.99896V21.0011C29.4983 24.9232 27.0467 28.0001 23.923 28.0001H6.08123C2.95754 28.0001 0.501709 24.9232 0.501709 21.0011V6.99896C0.501709 3.08106 2.95754 0 6.08123 0ZM12.3793 9.3742C12.2906 9.47563 12.2145 9.56016 12.1469 9.62356C12.4892 9.85601 12.7851 10.1899 13.0387 10.6168C13.2966 11.0394 13.4234 11.5297 13.4234 12.0791C13.4234 12.4891 13.3558 12.8737 13.2205 13.2287C13.081 13.5879 12.8697 13.9007 12.5865 14.167C12.299 14.4417 11.9397 14.653 11.5128 14.8009C11.0775 14.9573 10.5745 15.0334 9.99537 15.0334H6.01363V13.2033V7.05389V5.27457H7.63253H8.04677H9.62763H9.64031C10.1898 5.27457 10.6717 5.34642 11.0859 5.48589C11.4959 5.62536 11.8383 5.81555 12.1173 6.06491C12.392 6.31004 12.5949 6.59744 12.726 6.9271C12.8612 7.25676 12.9288 7.61178 12.9288 7.99216C12.9288 8.18657 12.8993 8.37254 12.8443 8.54159C12.7851 8.71488 12.7175 8.87125 12.6372 9.01073C12.5527 9.15443 12.4681 9.27277 12.3793 9.3742ZM10.7139 7.26099C10.6294 7.18069 10.5195 7.11306 10.3842 7.06235C10.1729 6.98627 9.90661 6.94823 9.58536 6.94823H7.86078V9.09103H10.6294C10.7266 9.00227 10.8196 8.86703 10.9168 8.68952C11.0098 8.51624 11.0563 8.29224 11.0563 8.02597C11.0563 7.73012 10.9464 7.47231 10.7139 7.26099ZM11.2127 11.1662C10.9676 10.9126 10.5956 10.7858 10.0968 10.7858H7.86078V13.3259H9.65722H9.88125C10.4772 13.3259 10.9042 13.2033 11.162 12.954C11.4241 12.7046 11.5551 12.4045 11.5551 12.0538C11.5551 11.7114 11.4367 11.4156 11.2127 11.1662ZM20.9262 10.135C20.7275 10.4012 20.4781 10.6337 20.1822 10.8281C19.8821 11.031 19.5313 11.1831 19.1339 11.2845L21.8223 15.0334H19.6158L17.0163 11.4113H15.9595V15.0334H14.0743V5.27457H14.1124H17.9462H17.9969C18.576 5.27457 19.0875 5.35064 19.527 5.49857C19.9666 5.64649 20.3344 5.85781 20.6303 6.11985C20.9219 6.38612 21.1417 6.7031 21.2897 7.06657C21.4334 7.43427 21.5095 7.83578 21.5095 8.2711C21.5095 8.60499 21.463 8.93465 21.37 9.25586C21.2728 9.57707 21.1248 9.86869 20.9262 10.135ZM18.3477 6.96936C18.2378 6.95669 18.1237 6.94823 18.0096 6.94823H15.9595V9.72077H17.9589C18.2505 9.72077 18.4999 9.6785 18.707 9.59397C18.9184 9.50945 19.0875 9.40378 19.2185 9.26431C19.3495 9.13329 19.4467 8.97692 19.5101 8.79941C19.5735 8.62612 19.6031 8.44439 19.6031 8.26265C19.6031 7.89072 19.4594 7.57797 19.172 7.32438C18.9606 7.13842 18.6859 7.02008 18.3477 6.96936ZM22.4901 5.27879V5.27457H24.3373V15.0334H22.4183V11.4198V8.85435V5.27457H22.4309L22.4901 5.27879ZM9.67833 22.4169V19.3105C9.67833 19.0527 9.71637 18.7991 9.79668 18.5455C9.98689 17.9665 10.287 17.5016 10.697 17.1508C11.1493 16.7662 11.665 16.576 12.2441 16.576C12.8696 16.576 13.4572 16.8296 14.0067 17.3494C14.5055 16.8296 15.0888 16.576 15.7566 16.576C16.3399 16.576 16.8556 16.7662 17.3121 17.1423C17.7729 17.5185 18.073 18.0003 18.2251 18.5835C18.3012 18.8582 18.335 19.0822 18.335 19.2598V22.4169H16.7373V19.3443C16.7204 19.2259 16.7161 19.1625 16.7161 19.1499C16.6654 18.8921 16.5597 18.6723 16.4033 18.4948C16.2174 18.2919 16.006 18.1862 15.7693 18.1862C15.5284 18.1862 15.3213 18.2919 15.1353 18.4948C14.9831 18.6723 14.8817 18.8921 14.8352 19.1499C14.8267 19.2006 14.8182 19.264 14.814 19.3443V22.4169H13.2036V19.3105C13.1867 19.2006 13.1782 19.1456 13.1782 19.1372C13.1275 18.8836 13.0218 18.6638 12.8654 18.4821C12.6794 18.2877 12.4723 18.1862 12.2356 18.1862C11.9609 18.1862 11.7284 18.3215 11.5382 18.592C11.3649 18.8329 11.2761 19.0949 11.2761 19.3908V22.4169H9.67833ZM19.5735 17.4466C19.0114 18.0172 18.7282 18.6977 18.7282 19.4965C18.7282 20.3037 19.0114 20.9968 19.5735 21.5674C20.1442 22.138 20.8247 22.4169 21.632 22.4169C22.4267 22.4169 23.1115 22.1337 23.6779 21.5589C24.2485 20.9842 24.5359 20.2995 24.5359 19.5091C24.5359 18.7019 24.2485 18.0172 23.6779 17.4466C23.1072 16.8803 22.414 16.5971 21.6109 16.5971C20.8205 16.5971 20.1442 16.8803 19.5735 17.4466ZM20.7063 20.4263C20.4527 20.1727 20.3259 19.8599 20.3259 19.4965C20.3259 19.1414 20.4527 18.8371 20.7063 18.5835C20.96 18.3257 21.2643 18.1989 21.6236 18.1989C21.9786 18.1989 22.283 18.3257 22.5451 18.5835C22.8071 18.8371 22.9382 19.1414 22.9382 19.4965C22.9382 19.8557 22.8071 20.1642 22.5451 20.4263C22.2914 20.6799 21.9871 20.8066 21.632 20.8066C21.2685 20.8066 20.96 20.6799 20.7063 20.4263Z"
    fill="white" />
</svg>
  