<svg width="29" height="29" viewBox="0 0 29 29" fill="none" xmlns="http://www.w3.org/2000/svg">
  <path
    d="M27.8638 21.1771C26.3161 21.9838 18.299 25.2802 16.5922 26.17C14.8854 27.0599 13.9372 27.0513 12.5888 26.4068C11.2406 25.7622 2.70889 22.316 1.17201 21.5813C0.403961 21.2143 0 20.9044 0 20.6116V17.6804C0 17.6804 11.1072 15.2624 12.9004 14.6191C14.6934 13.9757 15.3155 13.9525 16.8414 14.5114C18.3675 15.0706 27.4919 16.7168 29 17.2692L28.9993 20.159C28.9995 20.4487 28.6515 20.7666 27.8638 21.1771Z"
    fill="#D1D1D1" />
  <path
    d="M27.8632 18.2632C26.3157 19.0695 18.2987 22.366 16.5919 23.2557C14.8852 24.1458 13.9371 24.1371 12.5888 23.4925C11.2404 22.8484 2.7091 19.4016 1.17232 18.6674C-0.364451 17.9328 -0.396623 17.4272 1.11296 16.8361C2.62255 16.2448 11.1071 12.916 12.9004 12.2727C14.6935 11.6296 15.3155 11.6061 16.8414 12.1653C18.3674 12.7242 26.3365 15.8962 27.8444 16.4484C29.3528 17.0014 29.4107 17.4566 27.8632 18.2632Z"
    fill="white" />
  <path
    d="M27.8638 16.4342C26.3161 17.241 18.299 20.5372 16.5922 21.4274C14.8854 22.317 13.9372 22.3084 12.5888 21.6638C11.2404 21.0196 2.70889 17.573 1.17201 16.8383C0.403961 16.4713 0 16.1618 0 15.869V12.9374C0 12.9374 11.1072 10.5195 12.9004 9.8762C14.6934 9.23287 15.3155 9.20954 16.8414 9.76858C18.3676 10.3276 27.492 11.9735 29 12.526L28.9993 15.4161C28.9995 15.7058 28.6515 16.0236 27.8638 16.4342Z"
    fill="#D1D1D1" />
  <path
    d="M27.8632 13.5202C26.3157 14.3268 18.2987 17.623 16.5919 18.5131C14.8852 19.4028 13.9371 19.3941 12.5888 18.7495C11.2404 18.1054 2.7091 14.6587 1.17232 13.9244C-0.364451 13.19 -0.396623 12.6843 1.11296 12.093C2.62255 11.502 11.1072 8.17302 12.9004 7.5298C14.6935 6.88659 15.3155 6.86326 16.8414 7.4223C18.3674 7.98123 26.3365 11.153 27.8444 11.7055C29.3528 12.2583 29.4107 12.7137 27.8632 13.5202Z"
    fill="white" />
  <path
    d="M27.8638 11.5154C26.3161 12.3219 18.299 15.6184 16.5922 16.5086C14.8854 17.3983 13.9372 17.3896 12.5888 16.745C11.2404 16.1008 2.70889 12.6541 1.17201 11.9198C0.403961 11.5524 0 11.2428 0 10.9503V8.01861C0 8.01861 11.0302 4.20009 12.8233 3.55688C14.6163 2.91344 15.6913 2.99794 17.2172 3.55687C18.7435 4.11591 27.492 7.05493 29 7.6074L28.9993 10.4974C28.9995 10.7869 28.6515 11.1047 27.8638 11.5154Z"
    fill="#D1D1D1" />
  <path fill-rule="evenodd" clip-rule="evenodd"
    d="M22.466 10.9899C24.8155 9.98022 27.1086 8.99479 27.8633 8.60147C29.4108 7.79491 29.3529 7.33941 27.8445 6.78705C27.0931 6.51176 24.7374 5.58611 22.3741 4.65743C19.9945 3.72238 17.6071 2.78425 16.8415 2.50377C15.3156 1.94473 14.6935 1.96784 12.9005 2.61116C11.2316 3.21 3.76664 6.13463 1.5229 7.01369C1.3558 7.07915 1.21766 7.13327 1.11303 7.17424C-0.396444 7.76546 -0.364386 8.27126 1.1725 9.00555C1.96549 9.38454 4.62122 10.4858 7.19128 11.5515C9.6015 12.5509 11.9364 13.519 12.5889 13.831C13.9371 14.4752 14.8853 14.4839 16.592 13.5942C17.4665 13.1384 19.9974 12.0508 22.466 10.9899ZM15.5505 6.0087L18.0438 5.74986L16.1104 5.02588L16.6229 3.79621L14.7268 4.41699L12.7155 3.63036L13.3601 4.81959L11.2118 5.59432L14.0909 5.85305L14.9924 7.35177L15.5505 6.0087ZM10.1903 10.3356L14.8435 12.2656L16.858 9.3121L10.1903 10.3356ZM11.956 7.87773C11.956 7.11489 10.3604 6.49638 8.39214 6.49638C6.42388 6.49638 4.82831 7.11489 4.82831 7.87773C4.82831 8.64068 6.42388 9.2592 8.39214 9.2592C10.3604 9.2592 11.956 8.64079 11.956 7.87773Z"
    fill="white" />
  <path d="M20.9905 6.11696L24.9367 7.67639L20.9939 9.23435L20.9905 6.11696Z" fill="#A0A0A0" />
  <path d="M16.6246 7.84393L20.9905 6.11696L20.9939 9.23435L20.5658 9.40178L16.6246 7.84393Z"
    fill="#D1D1D1" />
  <rect x="1" y="19" width="27" height="9" rx="4.5" fill="white" />
  <rect x="0.5" y="18.5" width="28" height="10" rx="5" stroke="black" stroke-opacity="0.18" />
  <path
    d="M5.81366 26.072C5.48966 26.072 5.18766 26.02 4.90766 25.916C4.63166 25.808 4.39166 25.656 4.18766 25.46C3.98366 25.264 3.82366 25.034 3.70766 24.77C3.59566 24.506 3.53966 24.216 3.53966 23.9C3.53966 23.584 3.59566 23.294 3.70766 23.03C3.82366 22.766 3.98366 22.536 4.18766 22.34C4.39566 22.144 4.63766 21.994 4.91366 21.89C5.18966 21.782 5.49166 21.728 5.81966 21.728C6.18366 21.728 6.51166 21.792 6.80366 21.92C7.09966 22.044 7.34766 22.228 7.54766 22.472L6.92366 23.048C6.77966 22.884 6.61966 22.762 6.44366 22.682C6.26766 22.598 6.07566 22.556 5.86766 22.556C5.67166 22.556 5.49166 22.588 5.32766 22.652C5.16366 22.716 5.02166 22.808 4.90166 22.928C4.78166 23.048 4.68766 23.19 4.61966 23.354C4.55566 23.518 4.52366 23.7 4.52366 23.9C4.52366 24.1 4.55566 24.282 4.61966 24.446C4.68766 24.61 4.78166 24.752 4.90166 24.872C5.02166 24.992 5.16366 25.084 5.32766 25.148C5.49166 25.212 5.67166 25.244 5.86766 25.244C6.07566 25.244 6.26766 25.204 6.44366 25.124C6.61966 25.04 6.77966 24.914 6.92366 24.746L7.54766 25.322C7.34766 25.566 7.09966 25.752 6.80366 25.88C6.51166 26.008 6.18166 26.072 5.81366 26.072ZM8.13805 26V21.548H9.07405V26H8.13805ZM11.3047 26.048C11.0367 26.048 10.7967 25.996 10.5847 25.892C10.3767 25.788 10.2147 25.63 10.0987 25.418C9.98274 25.202 9.92474 24.928 9.92474 24.596V22.772H10.8607V24.458C10.8607 24.726 10.9167 24.924 11.0287 25.052C11.1447 25.176 11.3067 25.238 11.5147 25.238C11.6587 25.238 11.7867 25.208 11.8987 25.148C12.0107 25.084 12.0987 24.988 12.1627 24.86C12.2267 24.728 12.2587 24.564 12.2587 24.368V22.772H13.1947V26H12.3067V25.112L12.4687 25.37C12.3607 25.594 12.2007 25.764 11.9887 25.88C11.7807 25.992 11.5527 26.048 11.3047 26.048ZM15.1479 26.048C14.8719 26.048 14.6059 26.016 14.3499 25.952C14.0979 25.884 13.8979 25.8 13.7499 25.7L14.0619 25.028C14.2099 25.12 14.3839 25.196 14.5839 25.256C14.7879 25.312 14.9879 25.34 15.1839 25.34C15.3999 25.34 15.5519 25.314 15.6399 25.262C15.7319 25.21 15.7779 25.138 15.7779 25.046C15.7779 24.97 15.7419 24.914 15.6699 24.878C15.6019 24.838 15.5099 24.808 15.3939 24.788C15.2779 24.768 15.1499 24.748 15.0099 24.728C14.8739 24.708 14.7359 24.682 14.5959 24.65C14.4559 24.614 14.3279 24.562 14.2119 24.494C14.0959 24.426 14.0019 24.334 13.9299 24.218C13.8619 24.102 13.8279 23.952 13.8279 23.768C13.8279 23.564 13.8859 23.384 14.0019 23.228C14.1219 23.072 14.2939 22.95 14.5179 22.862C14.7419 22.77 15.0099 22.724 15.3219 22.724C15.5419 22.724 15.7659 22.748 15.9939 22.796C16.2219 22.844 16.4119 22.914 16.5639 23.006L16.2519 23.672C16.0959 23.58 15.9379 23.518 15.7779 23.486C15.6219 23.45 15.4699 23.432 15.3219 23.432C15.1139 23.432 14.9619 23.46 14.8659 23.516C14.7699 23.572 14.7219 23.644 14.7219 23.732C14.7219 23.812 14.7559 23.872 14.8239 23.912C14.8959 23.952 14.9899 23.984 15.1059 24.008C15.2219 24.032 15.3479 24.054 15.4839 24.074C15.6239 24.09 15.7639 24.116 15.9039 24.152C16.0439 24.188 16.1699 24.24 16.2819 24.308C16.3979 24.372 16.4919 24.462 16.5639 24.578C16.6359 24.69 16.6719 24.838 16.6719 25.022C16.6719 25.222 16.6119 25.4 16.4919 25.556C16.3719 25.708 16.1979 25.828 15.9699 25.916C15.7459 26.004 15.4719 26.048 15.1479 26.048ZM18.5694 26.048C18.1894 26.048 17.8934 25.952 17.6814 25.76C17.4694 25.564 17.3634 25.274 17.3634 24.89V22.058H18.2994V24.878C18.2994 25.014 18.3354 25.12 18.4074 25.196C18.4794 25.268 18.5774 25.304 18.7014 25.304C18.8494 25.304 18.9754 25.264 19.0794 25.184L19.3314 25.844C19.2354 25.912 19.1194 25.964 18.9834 26C18.8514 26.032 18.7134 26.048 18.5694 26.048ZM16.8654 23.564V22.844H19.1034V23.564H16.8654ZM21.3592 26.048C20.9912 26.048 20.6672 25.976 20.3872 25.832C20.1112 25.688 19.8972 25.492 19.7452 25.244C19.5932 24.992 19.5172 24.706 19.5172 24.386C19.5172 24.062 19.5912 23.776 19.7392 23.528C19.8912 23.276 20.0972 23.08 20.3572 22.94C20.6172 22.796 20.9112 22.724 21.2392 22.724C21.5552 22.724 21.8392 22.792 22.0912 22.928C22.3472 23.06 22.5492 23.252 22.6972 23.504C22.8452 23.752 22.9192 24.05 22.9192 24.398C22.9192 24.434 22.9172 24.476 22.9132 24.524C22.9092 24.568 22.9052 24.61 22.9012 24.65H20.2792V24.104H22.4092L22.0492 24.266C22.0492 24.098 22.0152 23.952 21.9472 23.828C21.8792 23.704 21.7852 23.608 21.6652 23.54C21.5452 23.468 21.4052 23.432 21.2452 23.432C21.0852 23.432 20.9432 23.468 20.8192 23.54C20.6992 23.608 20.6052 23.706 20.5372 23.834C20.4692 23.958 20.4352 24.106 20.4352 24.278V24.422C20.4352 24.598 20.4732 24.754 20.5492 24.89C20.6292 25.022 20.7392 25.124 20.8792 25.196C21.0232 25.264 21.1912 25.298 21.3832 25.298C21.5552 25.298 21.7052 25.272 21.8332 25.22C21.9652 25.168 22.0852 25.09 22.1932 24.986L22.6912 25.526C22.5432 25.694 22.3572 25.824 22.1332 25.916C21.9092 26.004 21.6512 26.048 21.3592 26.048ZM23.5424 26V22.772H24.4364V23.684L24.3104 23.42C24.4064 23.192 24.5604 23.02 24.7724 22.904C24.9844 22.784 25.2424 22.724 25.5464 22.724V23.588C25.5064 23.584 25.4704 23.582 25.4384 23.582C25.4064 23.578 25.3724 23.576 25.3364 23.576C25.0804 23.576 24.8724 23.65 24.7124 23.798C24.5564 23.942 24.4784 24.168 24.4784 24.476V26H23.5424Z"
    fill="#363636" />
</svg>
  