<svg class="svg-icon"
    style="width: 1em; height: 1em;vertical-align: middle;fill: currentColor;overflow: hidden;"
    viewBox="0 0 1024 1024" version="1.1" xmlns="http://www.w3.org/2000/svg">
    <path
        d="M812.4 788.8L761.6 876 680 952.8c-6 2.4-11.6 6.8-15.2 12.8-4 6.4-5.6 14-5.2 21.2h-203.2c6.8-127.2 111.6-228 240.4-228 42 0.4 81.6 11.2 115.6 30z"
        fill="#00529c" />
    <path
        d="M1021.6 1004h-90.4v-6.4c-1.2-128-106.4-232-234.4-232s-233.2 104-234.4 232v6.4H372.4v-6.4c1.2-177.6 146.8-322 324.4-322 177.6 0 323.2 144.4 324.4 322l0.4 6.4z m-77.6-12.8h64.8c-4.8-167.6-143.2-302.8-311.6-302.8-168.4 0-306.8 135.2-311.6 302.8h64.8c4.8-132 114-238.4 246.8-238.4 132.4 0 242 106.4 246.8 238.4z"
        fill="#4A555F" />
    <path
        d="M958 976c-12-133.2-125.2-238.4-261.2-238.4S448 842.8 435.6 976h-34.8c12.4-152.4 140.8-273.2 296-273.2s283.6 120.8 296 273.2h-34.8z"
        fill="#71CDE1" />
    <path
        d="M693.2 1024c-7.6 0-15.2-2-21.6-6.4-18.8-12-24-36.8-12.4-55.2 7.2-11.6 20-18.4 34-18.4 7.6 0 15.2 2 21.6 6.4 9.2 5.6 15.2 14.8 17.6 25.2 2.4 10.4 0.4 21.2-5.2 30.4-7.6 11.2-20.4 18-34 18z m0-67.2c-9.2 0-18 4.8-23.2 12.8-8 12.8-4.4 29.6 8.4 37.6 4.4 2.8 9.6 4.4 14.4 4.4 9.2 0 18-4.8 23.2-12.8 4-6 5.2-13.6 3.6-20.4-1.6-7.2-6-13.2-12-17.2-4-3.2-9.2-4.4-14.4-4.4zM684.4 759.2h12.8v39.6h-12.8zM521.62 835.16l25.456 25.456-9.052 9.048-25.452-25.456zM873.712 834.996l9.052 9.052-25.456 25.452-9.052-9.048zM904.8 980.8h32.4v12.8h-32.4zM457.6 980.8h32.4v12.8h-32.4z"
        fill="#4A555F" />
    <path
        d="M732.8 984.4l-12.4-1.6c-0.4-8.8-5.2-17.2-12.8-22-7.6-4.8-17.2-5.6-25.2-2l-6-0.8-0.8-10 82-77.2 10.4 6.8-35.2 106.8z m-34-40c5.6 0.8 11.2 2.8 16 6 4.8 3.2 9.2 7.2 12 12l21.2-64.4-49.2 46.4zM149.2 1004H2.4V551.2h146.8V1004z m-134-12.8h121.2V564H15.2v427.2z"
        fill="#4A555F" />
    <path d="M30.4 578.8h91.2V976H30.4z" fill="#00529c" />
    <path d="M344.8 1004H210.8V390h134V1004z m-121.2-12.8H332v-588H223.6v588z" fill="#4A555F" />
    <path d="M238.4 418h78.4V976H238.4z" fill="#00529c" />
    <path
        d="M432 784V192.4h146.8v486.8l-4 1.6c-50 19.2-95.2 50.4-131.6 90.4L432 784z m12.8-578.8v545.6c34.4-34.8 76-62.4 121.2-80.4V205.2h-121.2z"
        fill="#4A555F" />
    <path d="M460 220.4h91.2v440.4c-32.8 14-63.6 33.2-91.2 56.4V220.4z" fill="#00529c" />
    <path
        d="M800 674l-8-2.4c-30.8-8.8-62.8-13.6-95.2-13.6-12 0-24.4 0.8-36.4 2l-7.2 0.8V322.8H800v351.2z m-103.2-28.8c30.8 0 61.2 4 90.4 11.6V335.6h-121.2v311.2c10.4-0.8 20.8-1.6 30.8-1.6z"
        fill="#4A555F" />
    <path d="M772.4 638.4c-24.8-5.2-50-8-75.6-8-5.2 0-10.4 0-15.6 0.4V350.4h91.2v288z"
        fill="#00529c" />
    <path
        d="M1021.2 889.2l-12.4-27.6c-28-62.4-73.2-114.8-131.6-151.2l-2.8-2V249.6h146.8v639.6z m-133.6-187.6c51.2 32.8 92.4 77.2 121.2 130V262.4h-121.2v439.2z"
        fill="#4A555F" />
    <path d="M993.6 780.4c-25.2-34-55.6-63.2-91.2-87.2v-416h91.2v503.2z" fill="#00529c" />
    <path
        d="M1010.8 1.6l-170.8 156h-97.6l-93.6-111.2H283.6L37.6 336v19.6l252-296.4h353.2l93.6 111.2h108.8l174-159.2z"
        fill="#4A555F" />
    <path
        d="M991.2 66L848 197.2h-121.2l-93.6-111.2H296.4L37.2 390.8V460l284.8-334.4h288.4l92.4 112.4h164.4l124-118.8z"
        fill="#71CDE1" />
    <path d="M1021.2 90.8h-12.8V12.8h-78V0h90.8z" fill="#4A555F" />
</svg>