<svg width="29" height="29" viewBox="0 0 29 29" fill="none" xmlns="http://www.w3.org/2000/svg">
  <path
    d="M14.5 0C6.51599 0 0 6.51645 0 14.5C0 22.484 6.51645 29 14.5 29C22.484 29 29 22.4836 29 14.5C29 6.51599 22.4836 0 14.5 0ZM10.1748 2.45197C9.17997 3.71681 8.45701 5.28061 7.95676 6.79688H4.28322C5.77077 4.82884 7.81272 3.30255 10.1748 2.45197ZM3.19748 8.49043H7.476C7.09163 10.1011 6.86473 11.8496 6.81024 13.6504H1.72811C1.85011 11.7978 2.36775 10.0462 3.19748 8.49043ZM3.19748 20.5039C2.36775 18.9482 1.85011 17.2022 1.72811 15.3496H6.81024C6.86473 17.1504 7.09163 18.8932 7.476 20.5039H3.19748ZM4.28322 22.2031H7.95671C8.45684 23.719 9.1798 25.283 10.1748 26.548C7.81272 25.6975 5.77077 24.1712 4.28322 22.2031ZM13.6504 27.1566C11.7534 26.5189 10.4456 24.0836 9.75476 22.2031H13.6504V27.1566ZM13.6504 20.5039H9.22591C8.813 18.916 8.56831 17.1687 8.51014 15.3496H13.6504V20.5039ZM13.6504 13.6504H8.51014C8.56837 11.8313 8.81305 10.084 9.22591 8.49609H13.6504V13.6504ZM13.6504 6.79688H9.75476C10.4455 4.91646 11.7534 2.48109 13.6504 1.84343V6.79688ZM25.8025 8.49609C26.6323 10.0518 27.1499 11.7978 27.2719 13.6504H22.1898C22.1353 11.8496 21.9084 10.1068 21.524 8.49609H25.8025ZM24.7168 6.79688H21.0433C20.5432 5.281 19.8202 3.71698 18.8252 2.45197C21.1873 3.30255 23.2292 4.82884 24.7168 6.79688ZM15.3496 1.84343C17.2466 2.48109 18.5545 4.91641 19.2452 6.79688H15.3496V1.84343ZM15.3496 8.49609H19.7741C20.187 10.084 20.4317 11.8313 20.4899 13.6504H15.3496V8.49609ZM15.3496 15.3439H20.4899C20.4316 17.163 20.1869 18.916 19.7741 20.5039H15.3496V15.3439ZM15.3496 27.1566V22.1975H19.2452C18.5545 24.0779 17.2466 26.5189 15.3496 27.1566ZM18.8252 26.548C19.82 25.2832 20.543 23.7137 21.0433 22.1975H24.7168C23.2292 24.1655 21.1873 25.6975 18.8252 26.548ZM25.8025 20.5039H21.524C21.9084 18.8932 22.1353 17.1447 22.1898 15.3439H27.2719C27.1499 17.1965 26.6323 18.9482 25.8025 20.5039Z"
    fill="white" />
</svg>
  