<svg width="31" height="31" viewBox="0 0 31 31" fill="none" xmlns="http://www.w3.org/2000/svg">
  <g clip-path="url(#clip0_472_1493)">
    <path fill-rule="evenodd" clip-rule="evenodd"
      d="M23.2258 30.8561C23.5406 31.048 23.9281 31.048 24.243 30.8561C24.243 30.8561 26.0836 29.7241 27.774 28.6837C29.7794 27.4495 31 25.2631 31 22.908V14.5312C31 14.0333 30.6222 13.6163 30.1281 13.5673C27.8079 13.3368 25.7785 12.8427 24.2914 11.8003C23.9572 11.5664 23.5116 11.5664 23.1773 11.8003C21.6903 12.8427 19.6608 13.3368 17.3406 13.5673C16.8466 13.6163 16.4688 14.0333 16.4688 14.5312V22.908C16.4688 25.2631 17.6894 27.4495 19.6947 28.6837C21.3852 29.7241 23.2258 30.8561 23.2258 30.8561ZM14.5312 29.0625C15.127 29.0625 15.7131 29.0267 16.2895 28.9569C16.8175 28.893 17.2002 28.41 17.1323 27.8792C17.1081 27.6496 17.0016 27.449 16.8466 27.2999C16.832 27.2626 16.8127 27.2262 16.7933 27.1909C16.5221 26.7297 15.9263 26.5762 15.4661 26.8475C15.1658 27.0243 14.8558 27.125 14.5312 27.125C13.5334 27.125 12.6858 26.2691 11.935 24.9865C11.2278 23.7775 10.6562 22.1858 10.2639 20.3438H14.5312C15.0641 20.3438 15.5 19.9097 15.5 19.375C15.5 18.8403 15.0641 18.4062 14.5312 18.4062H9.93454C9.77469 17.1822 9.6875 15.8802 9.6875 14.5312C9.6875 13.1823 9.77469 11.8803 9.93454 10.6562H19.128C19.1522 10.8369 19.1716 11.0195 19.1909 11.2036C19.2539 11.7345 19.7334 12.1176 20.2614 12.058C20.7942 11.9985 21.1769 11.5189 21.1187 10.9876C21.1042 10.8766 21.0945 10.7657 21.08 10.6562H26.5147C26.6019 10.9139 26.6745 11.175 26.7423 11.439C26.8731 11.9578 27.4011 12.2721 27.9194 12.1409C28.4377 12.0101 28.7525 11.4826 28.6217 10.9643C27.0281 4.66646 21.3222 0 14.5312 0C6.51 0 0 6.51145 0 14.5312C0 22.551 6.51 29.0625 14.5312 29.0625ZM23.7344 28.8939L20.7119 27.0335C19.2781 26.1519 18.4062 24.5903 18.4062 22.908V15.3939C20.46 15.1188 22.2812 14.6039 23.7344 13.7446C25.1923 14.6039 27.0088 15.1188 29.0625 15.3939V22.908C29.0625 24.5903 28.1906 26.1519 26.7569 27.0335L23.7344 28.8939ZM8.2925 20.3438H3.35674C4.86799 23.2326 7.45938 25.4651 10.5981 26.4973C10.4819 26.3277 10.3704 26.15 10.2639 25.9644C9.42107 24.5229 8.73328 22.5883 8.2925 20.3438ZM20.1451 21.9974L22.0826 23.9349C22.4605 24.3132 23.0708 24.3132 23.4486 23.9349L27.3236 20.0599C27.7014 19.6821 27.7014 19.0679 27.3236 18.6901C26.9458 18.3118 26.3355 18.3118 25.9576 18.6901L22.7656 21.8802L21.5111 20.6276C21.1333 20.2493 20.523 20.2493 20.1451 20.6276C19.7673 21.0054 19.7673 21.6196 20.1451 21.9974ZM7.98734 10.6562H2.54782C2.15063 11.8769 1.9375 13.1794 1.9375 14.5312C1.9375 15.8831 2.15063 17.1856 2.54782 18.4062H7.98734C7.83234 17.175 7.75 15.8754 7.75 14.5312C7.75 13.1871 7.83234 11.8875 7.98734 10.6562ZM10.5981 2.56525C7.45938 3.59746 4.86315 5.83042 3.35674 8.71875H8.2925C8.73328 6.47416 9.42107 4.53956 10.2639 3.09806C10.3704 2.91254 10.4819 2.73478 10.5981 2.56525ZM18.7938 8.71875C18.3288 6.51678 17.607 4.67373 16.7061 3.42356C16.0522 2.52407 15.3402 1.9375 14.5312 1.9375C13.5334 1.9375 12.6858 2.79339 11.935 4.07602C11.2278 5.28502 10.6562 6.87667 10.2639 8.71875H18.7938ZM18.4644 2.56573C19.4622 4.05567 20.2711 6.19031 20.77 8.71875H25.7058C24.1993 5.83042 21.6031 3.59794 18.4644 2.56573Z"
      fill="white" />
  </g>
  <defs>
    <clipPath id="clip0_472_1493">
      <rect width="31" height="31" fill="white" />
    </clipPath>
  </defs>
</svg>
  