<svg width="27" height="27" viewBox="0 0 27 27" fill="none" xmlns="http://www.w3.org/2000/svg">
  <g clip-path="url(#clip0_472_1427)">
    <path
      d="M27 1.17391C27 0.687699 26.6058 0.293457 26.1195 0.293457H0.880453C0.394189 0.293457 0 0.687646 0 1.17391V22.3044C0 22.7906 0.394189 23.1848 0.880453 23.1848H15.2689C15.3609 23.378 15.4632 23.5681 15.5767 23.7541C16.7044 25.6028 18.6709 26.7065 20.837 26.7065C23.2882 26.7065 25.5765 25.2012 26.5312 22.9607C26.8566 22.1969 27.0101 21.401 26.9975 20.5947C26.9985 20.5776 27.0001 20.5608 27.0001 20.5435L27 1.17391ZM14.3805 2.05436H25.2391V5.57612H14.3805V2.05436ZM19.9565 10.8587V7.33692H25.2391V10.8587H19.9565ZM25.2391 12.6195V16.1312C24.2849 14.9291 22.954 13.973 22.5355 12.6195H25.2391ZM18.1956 7.33692V10.8587H8.80437V7.33692H18.1956ZM1.76085 2.05436H12.6195V5.57612H1.76085V2.05436ZM1.76085 7.33692H7.04347V10.8587H1.76085V7.33692ZM1.76085 12.6195H12.6195V16.1413H1.76085V12.6195ZM7.04347 21.4239H1.76085V17.9021H7.04347V21.4239ZM14.7382 21.4239H8.80437V17.9021H15.2398C14.7421 19.0669 14.5751 20.2719 14.7382 21.4239ZM16.3577 16.1413H14.3805V12.6195H19.2344C19.0098 12.9459 18.831 13.3068 18.7031 13.7003C18.5446 14.1879 18.4608 14.7268 18.4517 15.3139C18.2097 15.1541 17.8944 15.1177 17.6109 15.2424C17.1535 15.4439 16.7322 15.7481 16.3577 16.1413ZM24.9111 22.2705C24.2294 23.8706 22.5921 24.9456 20.8369 24.9456C19.2898 24.9456 17.8853 24.1573 17.08 22.8371C16.245 21.468 16.2299 19.7818 17.0386 18.2106C17.2062 17.8852 17.4203 17.5672 17.6679 17.3169C18.1239 17.9893 18.7296 18.4191 19.5428 18.5234C20.162 18.6024 20.6654 18.0286 20.5058 17.425C20.1599 16.1169 20.1168 15.0468 20.3776 14.2449C20.4937 13.8875 20.672 13.5837 20.9159 13.3298C21.3933 14.6667 22.4066 15.6539 23.2864 16.5698C25.0972 18.455 25.6743 20.4795 24.9111 22.2705Z"
      fill="white" />
  </g>
  <defs>
    <clipPath id="clip0_472_1427">
      <rect width="27" height="27" fill="white" />
    </clipPath>
  </defs>
</svg>
  