<svg width="33" height="33" viewBox="0 0 33 33" fill="none" xmlns="http://www.w3.org/2000/svg">
  <path fill-rule="evenodd" clip-rule="evenodd"
    d="M25.7812 15.0673V10.2879L16.5 6.17184L7.21875 10.2879V15.0673C7.21875 20.7027 11.0463 25.6126 16.5 26.9943C21.9537 25.6126 25.7812 20.7027 25.7812 15.0673ZM6.17358 7.93111C5.24151 8.34446 4.64062 9.26828 4.64062 10.2879V15.0673C4.64062 21.9281 9.33083 27.8997 15.9962 29.5255C16.3272 29.6064 16.6728 29.6064 17.0038 29.5255C23.6692 27.8997 28.3594 21.9281 28.3594 15.0673V10.2879C28.3594 9.26828 27.7584 8.34446 26.8264 7.93111L17.5452 3.81508C16.8797 3.51993 16.1203 3.51993 15.4548 3.81508L6.17358 7.93111Z"
    fill="white" />
  <path
    d="M17.7891 16.6707C18.5597 16.2249 19.0781 15.3918 19.0781 14.4375C19.0781 13.0137 17.9238 11.8594 16.5 11.8594C15.0762 11.8594 13.9219 13.0137 13.9219 14.4375C13.9219 15.3918 14.4403 16.2249 15.2109 16.6707V19.5938C15.2109 20.3057 15.7881 20.8828 16.5 20.8828C17.2119 20.8828 17.7891 20.3057 17.7891 19.5938V16.6707Z"
    fill="white" />
</svg>
  