<svg width="46" height="44" viewBox="0 0 46 44" fill="none" xmlns="http://www.w3.org/2000/svg">
  <path d="M26.955 5.22766H18.9476V6.16054H26.955V5.22766Z" fill="url(#paint0_radial_271_2358)" />
  <path d="M26.955 5.22766H18.9476V6.16054H26.955V5.22766Z" fill="black" fill-opacity="0.2" />
  <path d="M38.8691 8.95874H28.1631V9.89162H38.8691V8.95874Z" fill="#D55E10" />
  <path d="M31.9923 2.48694H27.0883V3.41982H31.9923V2.48694Z" fill="#D55E10" />
  <path d="M45.5 6.68494H39.1726V7.61781H45.5V6.68494Z" fill="url(#paint1_radial_271_2358)" />
  <path d="M45.5 6.68494H39.1726V7.61781H45.5V6.68494Z" fill="black" fill-opacity="0.2" />
  <path d="M42.0856 16.7133H34.4653V17.6461H42.0856V16.7133Z" fill="url(#paint2_radial_271_2358)" />
  <path d="M42.0856 16.7133H34.4653V17.6461H42.0856V16.7133Z" fill="black" fill-opacity="0.2" />
  <path d="M45.2481 21.3777H40.344V22.3106H45.2481V21.3777Z" fill="#D55E10" />
  <path d="M42.7411 26.7977H36.4137V27.7306H42.7411V26.7977Z" fill="url(#paint3_radial_271_2358)" />
  <path d="M42.7411 26.7977H36.4137V27.7306H42.7411V26.7977Z" fill="black" fill-opacity="0.2" />
  <path d="M38.2745 13.7813L34.4645 17.6467L38.2745 21.5122L42.0844 17.6467L38.2745 13.7813Z"
    fill="url(#paint4_radial_271_2358)" />
  <path d="M38.2745 13.7813L34.4645 17.6467L38.2745 21.5122L42.0844 17.6467L38.2745 13.7813Z"
    fill="black" fill-opacity="0.2" />
  <path d="M16.609 1.62687L13.4453 4.83667L16.609 8.04647L19.7727 4.83667L16.609 1.62687Z"
    fill="#D55E10" />
  <path d="M39.5762 24.5209L36.4125 27.7307L39.5762 30.9405L42.7399 27.7307L39.5762 24.5209Z"
    fill="url(#paint5_radial_271_2358)" />
  <path d="M39.5762 24.5209L36.4125 27.7307L39.5762 30.9405L42.7399 27.7307L39.5762 24.5209Z"
    fill="black" fill-opacity="0.2" />
  <path d="M29.5394 0.932913L27.0876 3.42041L29.5394 5.9079L31.9912 3.42041L29.5394 0.932913Z"
    fill="#D55E10" />
  <path d="M42.7955 19.8234L40.3438 22.3109L42.7955 24.7984L45.2473 22.3109L42.7955 19.8234Z"
    fill="#D55E10" />
  <path d="M42.3357 4.40836L39.172 7.61816L42.3357 10.828L45.4994 7.61816L42.3357 4.40836Z"
    fill="url(#paint6_radial_271_2358)" />
  <path d="M42.3357 4.40836L39.172 7.61816L42.3357 10.828L45.4994 7.61816L42.3357 4.40836Z"
    fill="black" fill-opacity="0.2" />
  <path d="M33.5159 4.46133L28.1627 9.89246L33.5159 15.3236L38.869 9.89246L33.5159 4.46133Z"
    fill="#D55E10" />
  <path d="M22.9508 2.09941L18.9474 6.16113L22.9508 10.2229L26.9542 6.16113L22.9508 2.09941Z"
    fill="url(#paint7_radial_271_2358)" />
  <path d="M22.9508 2.09941L18.9474 6.16113L22.9508 10.2229L26.9542 6.16113L22.9508 2.09941Z"
    fill="black" fill-opacity="0.2" />
  <path
    d="M33.9462 21.5722L30.6416 17.1508L31.2641 16.5193L26.0152 11.1939L24.9905 12.2336L21.9157 9.75545L20.1053 11.5923L15.9004 8.16209L14.3295 9.75592L11.9103 7.30151C5.20041 10.2289 0.5 16.9946 0.5 24.876C0.5 35.438 8.93903 44 19.3494 44C27.3678 44 34.212 38.9181 36.936 31.7574L34.2524 29.0348L35.6317 27.6355L31.8006 23.7486L33.9462 21.5722ZM19.3494 35.6041C13.5093 35.6041 8.77536 30.8007 8.77536 24.876C8.77536 18.9508 13.5093 14.1479 19.3494 14.1479C25.1895 14.1479 29.9235 18.9508 29.9235 24.876C29.9235 30.8007 25.1891 35.6041 19.3494 35.6041Z"
    fill="url(#paint8_radial_271_2358)" />
  <path
    d="M33.9462 21.5722L30.6416 17.1508L31.2641 16.5193L26.0152 11.1939L24.9905 12.2336L21.9157 9.75545L20.1053 11.5923L15.9004 8.16209L14.3295 9.75592L11.9103 7.30151C5.20041 10.2289 0.5 16.9946 0.5 24.876C0.5 35.438 8.93903 44 19.3494 44C27.3678 44 34.212 38.9181 36.936 31.7574L34.2524 29.0348L35.6317 27.6355L31.8006 23.7486L33.9462 21.5722ZM19.3494 35.6041C13.5093 35.6041 8.77536 30.8007 8.77536 24.876C8.77536 18.9508 13.5093 14.1479 19.3494 14.1479C25.1895 14.1479 29.9235 18.9508 29.9235 24.876C29.9235 30.8007 25.1891 35.6041 19.3494 35.6041Z"
    fill="black" fill-opacity="0.2" />
  <path
    d="M34.8657 20.6393L31.0347 16.7525L32.1841 15.5864L26.9352 10.2611L25.5941 11.6217L22.8357 8.82304L20.6137 11.0773L16.8208 7.22922L15.2499 8.82304L12.2009 5.72961C6.3263 8.96857 2.3385 15.2837 2.3385 22.5438C2.3385 33.1058 10.7775 41.6678 21.1879 41.6678C28.5875 41.6678 34.9871 37.3397 38.0724 31.0451L35.1719 28.1024L36.5511 26.703L32.7201 22.8162L34.8657 20.6393ZM21.1884 33.2719C15.3483 33.2719 10.6143 28.4685 10.6143 22.5438C10.6143 16.6186 15.3483 11.8157 21.1884 11.8157C27.0285 11.8157 31.7625 16.6186 31.7625 22.5438C31.7625 28.4685 27.028 33.2719 21.1884 33.2719Z"
    fill="url(#paint9_radial_271_2358)" />
  <path d="M38.2745 12.8483L34.4645 16.7137L38.2745 20.5792L42.0844 16.7137L38.2745 12.8483Z"
    fill="url(#paint10_radial_271_2358)" />
  <path d="M19.7729 3.90308H13.4454V4.83595H19.7729V3.90308Z" fill="#D55E10" />
  <path d="M16.609 0.694012L13.4453 3.90381L16.609 7.11361L19.7727 3.90381L16.609 0.694012Z"
    fill="#FF802D" />
  <path d="M39.5762 23.5881L36.4125 26.7979L39.5762 30.0077L42.7399 26.7979L39.5762 23.5881Z"
    fill="url(#paint11_radial_271_2358)" />
  <path
    d="M29.5394 5.21204e-05L27.0876 2.48755L29.5394 4.97504L31.9912 2.48755L29.5394 5.21204e-05Z"
    fill="#FF802D" />
  <path d="M42.7955 18.8906L40.3438 21.3781L42.7955 23.8655L45.2473 21.3781L42.7955 18.8906Z"
    fill="#FF802D" />
  <path d="M42.3357 3.4755L39.172 6.6853L42.3357 9.8951L45.4994 6.6853L42.3357 3.4755Z"
    fill="url(#paint12_radial_271_2358)" />
  <path d="M33.5159 3.52847L28.1627 8.95959L33.5159 14.3907L38.869 8.9596L33.5159 3.52847Z"
    fill="#FF802D" />
  <path d="M22.9508 1.16655L18.9474 5.22827L22.9508 9.28999L26.9542 5.22827L22.9508 1.16655Z"
    fill="url(#paint13_radial_271_2358)" />
  <path
    d="M20.5421 28.0072C23.0483 28.0072 25.0799 25.9459 25.0799 23.4032C25.0799 20.8606 23.0483 18.7993 20.5421 18.7993C18.0359 18.7993 16.0043 20.8606 16.0043 23.4032C16.0043 25.9459 18.0359 28.0072 20.5421 28.0072Z"
    fill="#FF802D" />
  <defs>
    <radialGradient id="paint0_radial_271_2358" cx="0" cy="0" r="1" gradientUnits="userSpaceOnUse"
      gradientTransform="translate(23.1029 5.22766) rotate(78.9614) scale(0.950463 7.86324)">
      <stop stop-color="#306BFF" />
      <stop offset="1" stop-color="#083EC6" />
    </radialGradient>
    <radialGradient id="paint1_radial_271_2358" cx="0" cy="0" r="1" gradientUnits="userSpaceOnUse"
      gradientTransform="translate(42.4562 6.68494) rotate(81.2367) scale(0.943897 6.2568)">
      <stop stop-color="#306BFF" />
      <stop offset="1" stop-color="#083EC6" />
    </radialGradient>
    <radialGradient id="paint2_radial_271_2358" cx="0" cy="0" r="1" gradientUnits="userSpaceOnUse"
      gradientTransform="translate(38.4198 16.7133) rotate(79.4829) scale(0.948818 7.49608)">
      <stop stop-color="#306BFF" />
      <stop offset="1" stop-color="#083EC6" />
    </radialGradient>
    <radialGradient id="paint3_radial_271_2358" cx="0" cy="0" r="1" gradientUnits="userSpaceOnUse"
      gradientTransform="translate(39.6973 26.7977) rotate(81.2367) scale(0.943897 6.2568)">
      <stop stop-color="#306BFF" />
      <stop offset="1" stop-color="#083EC6" />
    </radialGradient>
    <radialGradient id="paint4_radial_271_2358" cx="0" cy="0" r="1" gradientUnits="userSpaceOnUse"
      gradientTransform="translate(36.4416 15.6408) rotate(44.112) scale(5.42713 5.43013)">
      <stop stop-color="#306BFF" />
      <stop offset="1" stop-color="#083EC6" />
    </radialGradient>
    <radialGradient id="paint5_radial_271_2358" cx="0" cy="0" r="1" gradientUnits="userSpaceOnUse"
      gradientTransform="translate(38.0543 26.065) rotate(44.112) scale(4.50656 4.50904)">
      <stop stop-color="#306BFF" />
      <stop offset="1" stop-color="#083EC6" />
    </radialGradient>
    <radialGradient id="paint6_radial_271_2358" cx="0" cy="0" r="1" gradientUnits="userSpaceOnUse"
      gradientTransform="translate(40.8138 5.95247) rotate(44.112) scale(4.50656 4.50905)">
      <stop stop-color="#306BFF" />
      <stop offset="1" stop-color="#083EC6" />
    </radialGradient>
    <radialGradient id="paint7_radial_271_2358" cx="0" cy="0" r="1" gradientUnits="userSpaceOnUse"
      gradientTransform="translate(21.0249 4.05335) rotate(44.112) scale(5.70265 5.70581)">
      <stop stop-color="#306BFF" />
      <stop offset="1" stop-color="#083EC6" />
    </radialGradient>
    <radialGradient id="paint8_radial_271_2358" cx="0" cy="0" r="1" gradientUnits="userSpaceOnUse"
      gradientTransform="translate(19.4081 7.30151) rotate(88.7074) scale(36.7078 36.4455)">
      <stop stop-color="#306BFF" />
      <stop offset="1" stop-color="#083EC6" />
    </radialGradient>
    <radialGradient id="paint9_radial_271_2358" cx="0" cy="0" r="1" gradientUnits="userSpaceOnUse"
      gradientTransform="translate(20.8822 5.72961) rotate(88.7054) scale(35.9474 35.7433)">
      <stop stop-color="#306BFF" />
      <stop offset="1" stop-color="#083EC6" />
    </radialGradient>
    <radialGradient id="paint10_radial_271_2358" cx="0" cy="0" r="1" gradientUnits="userSpaceOnUse"
      gradientTransform="translate(36.4416 14.7078) rotate(44.112) scale(5.42713 5.43013)">
      <stop stop-color="#306BFF" />
      <stop offset="1" stop-color="#083EC6" />
    </radialGradient>
    <radialGradient id="paint11_radial_271_2358" cx="0" cy="0" r="1" gradientUnits="userSpaceOnUse"
      gradientTransform="translate(38.0543 25.1322) rotate(44.112) scale(4.50656 4.50904)">
      <stop stop-color="#306BFF" />
      <stop offset="1" stop-color="#083EC6" />
    </radialGradient>
    <radialGradient id="paint12_radial_271_2358" cx="0" cy="0" r="1" gradientUnits="userSpaceOnUse"
      gradientTransform="translate(40.8138 5.01961) rotate(44.112) scale(4.50656 4.50905)">
      <stop stop-color="#306BFF" />
      <stop offset="1" stop-color="#083EC6" />
    </radialGradient>
    <radialGradient id="paint13_radial_271_2358" cx="0" cy="0" r="1" gradientUnits="userSpaceOnUse"
      gradientTransform="translate(21.0249 3.12048) rotate(44.112) scale(5.70265 5.70581)">
      <stop stop-color="#306BFF" />
      <stop offset="1" stop-color="#083EC6" />
    </radialGradient>
  </defs>
</svg>
    