<svg width="115" height="110" viewBox="0 0 115 110" fill="none" xmlns="http://www.w3.org/2000/svg">
  <path fill-rule="evenodd" clip-rule="evenodd"
    d="M87.3879 44.3367L95.0303 36.6943L102.673 44.3367H105.109V46.7682H105.104L105.106 46.7695L95.0303 56.8448L84.9551 46.7695L84.9573 46.7673V44.3367H87.3879Z"
    fill="url(#paint0_linear_209_4573)" />
  <path fill-rule="evenodd" clip-rule="evenodd"
    d="M87.3879 44.3367L95.0303 36.6943L102.673 44.3367H105.109V46.7682H105.104L105.106 46.7695L95.0303 56.8448L84.9551 46.7695L84.9573 46.7673V44.3367H87.3879Z"
    fill="black" fill-opacity="0.3" />
  <path fill-rule="evenodd" clip-rule="evenodd"
    d="M92.5383 70.6216L98.4729 64.687L104.408 70.6216H106.842V73.0531H106.839L106.839 73.0532L98.4729 81.4195L90.1067 73.0532L90.1096 73.0503V70.6216H92.5383Z"
    fill="url(#paint1_linear_209_4573)" />
  <path fill-rule="evenodd" clip-rule="evenodd"
    d="M92.5383 70.6216L98.4729 64.687L104.408 70.6216H106.842V73.0531H106.839L106.839 73.0532L98.4729 81.4195L90.1067 73.0532L90.1096 73.0503V70.6216H92.5383Z"
    fill="black" fill-opacity="0.3" />
  <path fill-rule="evenodd" clip-rule="evenodd"
    d="M67.8806 7.25611L71.9313 3.20538L75.9821 7.25611H78.4177V9.68763H78.4136L78.4149 9.68896L71.9313 16.1726L65.4478 9.68897L65.4492 9.6875V7.25611H67.8806Z"
    fill="#FF802D" />
  <path fill-rule="evenodd" clip-rule="evenodd"
    d="M67.8806 7.25611L71.9313 3.20538L75.9821 7.25611H78.4177V9.68763H78.4136L78.4149 9.68896L71.9313 16.1726L65.4478 9.68897L65.4492 9.6875V7.25611H67.8806Z"
    fill="black" fill-opacity="0.2" />
  <path fill-rule="evenodd" clip-rule="evenodd"
    d="M102.935 56.4944L106.986 52.4432L111.037 56.4944H113.472V58.9259H113.469L113.47 58.9268L106.986 65.4103L100.502 58.9268L100.503 58.9258V56.4944H102.935Z"
    fill="#FF802D" />
  <path fill-rule="evenodd" clip-rule="evenodd"
    d="M102.935 56.4944L106.986 52.4432L111.037 56.4944H113.472V58.9259H113.469L113.47 58.9268L106.986 65.4103L100.502 58.9268L100.503 58.9258V56.4944H102.935Z"
    fill="black" fill-opacity="0.2" />
  <path fill-rule="evenodd" clip-rule="evenodd"
    d="M99.8364 18.198L105.77 12.2641L111.704 18.198H114.138V20.6295H114.136L114.137 20.6304L105.77 28.9966L97.4041 20.6304L97.4055 20.6289V18.198H99.8364Z"
    fill="url(#paint2_linear_209_4573)" />
  <path fill-rule="evenodd" clip-rule="evenodd"
    d="M99.8364 18.198L105.77 12.2641L111.704 18.198H114.138V20.6295H114.136L114.137 20.6304L105.77 28.9966L97.4041 20.6304L97.4055 20.6289V18.198H99.8364Z"
    fill="black" fill-opacity="0.3" />
  <path fill-rule="evenodd" clip-rule="evenodd"
    d="M70.7239 24.1248L82.4464 12.4023L94.1689 24.1248H96.6029V26.5563H96.6004L96.6025 26.5584L82.4464 40.7144L68.2903 26.5583L68.2924 26.5563H68.2915V24.1248H70.7239Z"
    fill="#FF802D" />
  <path fill-rule="evenodd" clip-rule="evenodd"
    d="M70.7239 24.1248L82.4464 12.4023L94.1689 24.1248H96.6029V26.5563H96.6004L96.6025 26.5584L82.4464 40.7144L68.2903 26.5583L68.2924 26.5563H68.2915V24.1248H70.7239Z"
    fill="black" fill-opacity="0.2" />
  <path fill-rule="evenodd" clip-rule="evenodd"
    d="M46.354 14.3999L54.5079 6.24599L62.6618 14.3999H65.0968V16.8314H65.0933L65.0947 16.8328L54.5079 27.4195L43.9211 16.8328L43.9225 16.8314H43.9219V14.3999H46.354Z"
    fill="url(#paint3_linear_209_4573)" />
  <path fill-rule="evenodd" clip-rule="evenodd"
    d="M46.354 14.3999L54.5079 6.24599L62.6618 14.3999H65.0968V16.8314H65.0933L65.0947 16.8328L54.5079 27.4195L43.9211 16.8328L43.9225 16.8314H43.9219V14.3999H46.354Z"
    fill="black" fill-opacity="0.3" />
  <path d="M95.0303 34.2628L84.9551 44.3381L95.0303 54.4134L105.106 44.3381L95.0303 34.2628Z"
    fill="url(#paint4_linear_209_4573)" />
  <path fill-rule="evenodd" clip-rule="evenodd"
    d="M31.8049 10.947L37.7376 5.01437L43.6702 10.947H46.1041V13.3785H46.1018L46.1038 13.3806L37.7376 21.7469L29.3713 13.3806L29.3734 13.3785H29.3716V10.947H31.8049Z"
    fill="#FF802D" />
  <path fill-rule="evenodd" clip-rule="evenodd"
    d="M31.8049 10.947L37.7376 5.01437L43.6702 10.947H46.1041V13.3785H46.1018L46.1038 13.3806L37.7376 21.7469L29.3713 13.3806L29.3734 13.3785H29.3716V10.947H31.8049Z"
    fill="black" fill-opacity="0.2" />
  <path d="M37.7376 2.58293L29.3713 10.9492L37.7376 19.3154L46.1038 10.9492L37.7376 2.58293Z"
    fill="#FF802D" />
  <path d="M98.4729 62.2555L90.1067 70.6218L98.4729 78.988L106.839 70.6218L98.4729 62.2555Z"
    fill="url(#paint5_linear_209_4573)" />
  <path d="M71.9313 0.773929L65.4478 7.25752L71.9313 13.7411L78.4149 7.25752L71.9313 0.773929Z"
    fill="#FF802D" />
  <path d="M106.986 50.0115L100.502 56.4951L106.986 62.9787L113.47 56.4951L106.986 50.0115Z"
    fill="#FF802D" />
  <path d="M105.77 9.83267L97.4041 18.1989L105.77 26.5652L114.137 18.1989L105.77 9.83267Z"
    fill="url(#paint6_linear_209_4573)" />
  <path d="M82.4464 9.97082L68.2903 24.1269L82.4464 38.283L96.6025 24.1269L82.4464 9.97082Z"
    fill="#FF802D" />
  <path d="M54.5079 3.81455L43.9211 14.4013L54.5079 24.9881L65.0947 14.4013L54.5079 3.81455Z"
    fill="url(#paint7_linear_209_4573)" />
  <path
    d="M50.1382 74.774C58.4224 74.774 65.1382 68.0582 65.1382 59.7739C65.1382 51.4897 58.4224 44.7739 50.1382 44.7739C41.8539 44.7739 35.1382 51.4897 35.1382 59.7739C35.1382 68.0582 41.8539 74.774 50.1382 74.774Z"
    fill="#FF802D" />
  <mask id="mask0_209_4573" style="mask-type:alpha" maskUnits="userSpaceOnUse" x="0" y="15"
    width="95" height="95">
    <path
      d="M86.0163 54.5698L75.8853 44.4389L78.9247 41.3995L65.0444 27.5191L61.498 31.0655L54.2035 23.7709L48.3277 29.6467L38.2977 19.6167L34.1434 23.7709L26.0805 15.708C10.5455 24.1502 0 40.6104 0 59.5337C0 87.0634 22.3165 109.38 49.8462 109.38C69.4138 109.38 86.3372 98.0989 94.4962 81.6922L86.826 74.022L90.4732 70.3747L80.3423 60.2437L86.0163 54.5698ZM49.8474 87.4962C34.4036 87.4962 21.8849 74.9763 21.8849 59.5337C21.8849 44.0899 34.4036 31.5713 49.8474 31.5713C65.2912 31.5713 77.8099 44.0899 77.8099 59.5337C77.8099 74.9763 65.29 87.4962 49.8474 87.4962Z"
      fill="url(#paint8_linear_209_4573)" />
  </mask>
  <g mask="url(#mask0_209_4573)">
    <path
      d="M11.3779 56.1937C5.28363 55.6234 0.684933 50.1569 2.55855 44.3298C5.38294 35.5458 10.586 27.6501 17.6768 21.5937C27.5851 13.1309 40.387 8.9363 53.3266 9.91292C66.2662 10.8895 78.3088 16.9593 86.8619 26.8155C95.4151 36.6717 99.7949 49.5262 99.0584 62.6118C98.3219 75.6974 92.5281 87.9677 82.9242 96.7813C73.3203 105.595 60.6743 110.247 47.7085 109.736C34.7427 109.225 22.4939 103.592 13.599 94.0493C7.23814 87.2254 2.95613 78.7924 1.13316 69.7494C-0.078242 63.74 5.11907 58.8205 11.2479 58.9517C17.373 59.0829 22.031 64.3386 24.2901 70.0334C25.549 73.207 27.3925 76.1461 29.7567 78.6824C34.6637 83.9467 41.4209 87.0542 48.5736 87.3361C55.7264 87.618 62.7027 85.0516 68.0009 80.1895C73.299 75.3274 76.4952 68.5583 76.9015 61.3395C77.3078 54.1206 74.8916 47.0293 70.1731 41.592C65.4547 36.1547 58.8112 32.8062 51.6729 32.2675C44.5346 31.7287 37.4723 34.0427 32.0063 38.7113C29.381 40.9536 27.2247 43.653 25.6194 46.6509C22.7224 52.0609 17.488 56.7655 11.3779 56.1937Z"
      fill="url(#paint9_linear_209_4573)" />
  </g>
  <defs>
    <linearGradient id="paint0_linear_209_4573" x1="102.144" y1="51.3133" x2="85.3802"
      y2="41.209" gradientUnits="userSpaceOnUse">
      <stop stop-color="#0021FF" />
      <stop offset="1" stop-color="#06FEFF" />
    </linearGradient>
    <linearGradient id="paint1_linear_209_4573" x1="104.38" y1="76.8263" x2="90.4597"
      y2="68.4359" gradientUnits="userSpaceOnUse">
      <stop stop-color="#0021FF" />
      <stop offset="1" stop-color="#06FEFF" />
    </linearGradient>
    <linearGradient id="paint2_linear_209_4573" x1="111.678" y1="24.4034" x2="97.7571"
      y2="16.0131" gradientUnits="userSpaceOnUse">
      <stop stop-color="#0021FF" />
      <stop offset="1" stop-color="#06FEFF" />
    </linearGradient>
    <linearGradient id="paint3_linear_209_4573" x1="61.9832" y1="21.6072" x2="44.3679"
      y2="10.9899" gradientUnits="userSpaceOnUse">
      <stop stop-color="#0021FF" />
      <stop offset="1" stop-color="#06FEFF" />
    </linearGradient>
    <linearGradient id="paint4_linear_209_4573" x1="102.144" y1="48.8819" x2="85.3802"
      y2="38.7776" gradientUnits="userSpaceOnUse">
      <stop stop-color="#0021FF" />
      <stop offset="1" stop-color="#06FEFF" />
    </linearGradient>
    <linearGradient id="paint5_linear_209_4573" x1="104.38" y1="74.3949" x2="90.4597"
      y2="66.0045" gradientUnits="userSpaceOnUse">
      <stop stop-color="#0021FF" />
      <stop offset="1" stop-color="#06FEFF" />
    </linearGradient>
    <linearGradient id="paint6_linear_209_4573" x1="111.678" y1="21.972" x2="97.7571"
      y2="13.5817" gradientUnits="userSpaceOnUse">
      <stop stop-color="#0021FF" />
      <stop offset="1" stop-color="#06FEFF" />
    </linearGradient>
    <linearGradient id="paint7_linear_209_4573" x1="61.9832" y1="19.1759" x2="44.3679"
      y2="8.55858" gradientUnits="userSpaceOnUse">
      <stop stop-color="#0021FF" />
      <stop offset="1" stop-color="#06FEFF" />
    </linearGradient>
    <linearGradient id="paint8_linear_209_4573" x1="59.3015" y1="116.737" x2="28.5811"
      y2="-8.28972" gradientUnits="userSpaceOnUse">
      <stop stop-color="#0021FF" />
      <stop offset="1" stop-color="#06FEFF" />
    </linearGradient>
    <linearGradient id="paint9_linear_209_4573" x1="62.2661" y1="117.629" x2="28.9203"
      y2="-15.5543" gradientUnits="userSpaceOnUse">
      <stop stop-color="#0021FF" />
      <stop offset="1" stop-color="#06FEFF" />
    </linearGradient>
  </defs>
</svg>
    