<svg width="355" height="73" viewBox="0 0 355 73" fill="none" xmlns="http://www.w3.org/2000/svg">
  <path d="M44.6517 8.67325H31.1366V10.221H44.6517V8.67325Z" fill="url(#paint0_radial_271_2355)" />
  <path d="M44.6517 8.67325H31.1366V10.221H44.6517V8.67325Z" fill="black" fill-opacity="0.2" />
  <path d="M64.7609 14.8634H46.6909V16.4111H64.7609V14.8634Z" fill="#D55E10" />
  <path d="M53.154 4.12604H44.8767V5.67377H53.154V4.12604Z" fill="#D55E10" />
  <path d="M75.9528 11.0908H65.2731V12.6385H75.9528V11.0908Z" fill="url(#paint1_radial_271_2355)" />
  <path d="M75.9528 11.0908H65.2731V12.6385H75.9528V11.0908Z" fill="black" fill-opacity="0.2" />
  <path d="M70.1896 27.7289H57.3279V29.2766H70.1896V27.7289Z" fill="url(#paint2_radial_271_2355)" />
  <path d="M70.1896 27.7289H57.3279V29.2766H70.1896V27.7289Z" fill="black" fill-opacity="0.2" />
  <path d="M75.5276 35.4675H67.2503V37.0153H75.5276V35.4675Z" fill="#D55E10" />
  <path d="M71.2962 44.4599H60.6165V46.0076H71.2962V44.4599Z" fill="url(#paint3_radial_271_2355)" />
  <path d="M71.2962 44.4599H60.6165V46.0076H71.2962V44.4599Z" fill="black" fill-opacity="0.2" />
  <path d="M63.7572 22.8643L57.3266 29.2775L63.7572 35.6907L70.1878 29.2775L63.7572 22.8643Z"
    fill="url(#paint4_radial_271_2355)" />
  <path d="M63.7572 22.8643L57.3266 29.2775L63.7572 35.6907L70.1878 29.2775L63.7572 22.8643Z"
    fill="black" fill-opacity="0.2" />
  <path d="M27.1894 2.69921L21.8496 8.02455L27.1894 13.3499L32.5293 8.02455L27.1894 2.69921Z"
    fill="#D55E10" />
  <path d="M65.9544 40.6824L60.6146 46.0078L65.9544 51.3331L71.2943 46.0078L65.9544 40.6824Z"
    fill="url(#paint5_radial_271_2355)" />
  <path d="M65.9544 40.6824L60.6146 46.0078L65.9544 51.3331L71.2943 46.0078L65.9544 40.6824Z"
    fill="black" fill-opacity="0.2" />
  <path d="M49.014 1.54773L44.8758 5.67471L49.014 9.80169L53.1522 5.67471L49.014 1.54773Z"
    fill="#D55E10" />
  <path d="M71.388 32.8889L67.2498 37.0158L71.388 41.1428L75.5262 37.0158L71.388 32.8889Z"
    fill="#D55E10" />
  <path d="M70.612 7.31386L65.2721 12.6392L70.612 17.9646L75.9518 12.6392L70.612 7.31386Z"
    fill="url(#paint6_radial_271_2355)" />
  <path d="M70.612 7.31386L65.2721 12.6392L70.612 17.9646L75.9518 12.6392L70.612 7.31386Z"
    fill="black" fill-opacity="0.2" />
  <path d="M55.7254 7.40182L46.6901 16.4126L55.7254 25.4233L64.7607 16.4126L55.7254 7.40182Z"
    fill="#D55E10" />
  <path d="M37.8933 3.48316L31.1362 10.2219L37.8933 16.9607L44.6504 10.2219L37.8933 3.48316Z"
    fill="url(#paint7_radial_271_2355)" />
  <path d="M37.8933 3.48316L31.1362 10.2219L37.8933 16.9607L44.6504 10.2219L37.8933 3.48316Z"
    fill="black" fill-opacity="0.2" />
  <path
    d="M56.4519 35.7903L50.8742 28.4548L51.9249 27.407L43.0656 18.5718L41.336 20.2967L36.1463 16.1852L33.0905 19.2327L25.9935 13.5417L23.342 16.186L19.2588 12.1139C7.93353 16.9707 0 28.1956 0 41.2716C0 58.7949 14.2437 73 31.8148 73C45.3485 73 56.9004 64.5687 61.498 52.6884L56.9687 48.1713L59.2966 45.8497L52.8304 39.4011L56.4519 35.7903ZM31.8148 59.0704C21.9576 59.0704 13.9675 51.1012 13.9675 41.2716C13.9675 31.4412 21.9576 23.4727 31.8148 23.4727C41.672 23.4727 49.6621 31.4412 49.6621 41.2716C49.6621 51.1012 41.6712 59.0704 31.8148 59.0704Z"
    fill="url(#paint8_radial_271_2355)" />
  <path
    d="M56.4519 35.7903L50.8742 28.4548L51.9249 27.407L43.0656 18.5718L41.336 20.2967L36.1463 16.1852L33.0905 19.2327L25.9935 13.5417L23.342 16.186L19.2588 12.1139C7.93353 16.9707 0 28.1956 0 41.2716C0 58.7949 14.2437 73 31.8148 73C45.3485 73 56.9004 64.5687 61.498 52.6884L56.9687 48.1713L59.2966 45.8497L52.8304 39.4011L56.4519 35.7903ZM31.8148 59.0704C21.9576 59.0704 13.9675 51.1012 13.9675 41.2716C13.9675 31.4412 21.9576 23.4727 31.8148 23.4727C41.672 23.4727 49.6621 31.4412 49.6621 41.2716C49.6621 51.1012 41.6712 59.0704 31.8148 59.0704Z"
    fill="black" fill-opacity="0.2" />
  <path
    d="M58.0039 34.2425L51.5377 27.7939L53.4776 25.8593L44.6184 17.0241L42.3548 19.2814L37.699 14.6382L33.9488 18.3783L27.547 11.9939L24.8955 14.6382L19.7493 9.50597C9.8339 14.8797 3.10313 25.357 3.10313 37.4022C3.10313 54.9256 17.3469 69.1307 34.9179 69.1307C47.4072 69.1307 58.2087 61.95 63.4163 51.5067L58.5207 46.6244L60.8486 44.3028L54.3824 37.8542L58.0039 34.2425ZM34.9187 55.2011C25.0616 55.2011 17.0714 47.2319 17.0714 37.4022C17.0714 27.5718 25.0616 19.6033 34.9187 19.6033C44.7759 19.6033 52.766 27.5718 52.766 37.4022C52.766 47.2319 44.7751 55.2011 34.9187 55.2011Z"
    fill="url(#paint9_radial_271_2355)" />
  <path d="M63.7572 21.3166L57.3266 27.7298L63.7572 34.1429L70.1878 27.7298L63.7572 21.3166Z"
    fill="url(#paint10_radial_271_2355)" />
  <path d="M32.5295 6.4755H21.8498V8.02323H32.5295V6.4755Z" fill="#D55E10" />
  <path d="M27.1894 1.15148L21.8496 6.47682L27.1894 11.8022L32.5293 6.47683L27.1894 1.15148Z"
    fill="#FF802D" />
  <path d="M65.9544 39.1347L60.6146 44.46L65.9544 49.7854L71.2943 44.46L65.9544 39.1347Z"
    fill="url(#paint11_radial_271_2355)" />
  <path d="M49.014 0L44.8758 4.12698L49.014 8.25396L53.1522 4.12698L49.014 0Z" fill="#FF802D" />
  <path d="M71.388 31.3411L67.2498 35.4681L71.388 39.5951L75.5262 35.4681L71.388 31.3411Z"
    fill="#FF802D" />
  <path d="M70.612 5.76613L65.2721 11.0915L70.612 16.4168L75.9518 11.0915L70.612 5.76613Z"
    fill="url(#paint12_radial_271_2355)" />
  <path d="M55.7254 5.85409L46.6901 14.8648L55.7254 23.8756L64.7607 14.8648L55.7254 5.85409Z"
    fill="#FF802D" />
  <path d="M37.8933 1.93543L31.1362 8.67419L37.8933 15.413L44.6504 8.67419L37.8933 1.93543Z"
    fill="url(#paint13_radial_271_2355)" />
  <path
    d="M33.8278 46.4665C38.0578 46.4665 41.4869 43.0467 41.4869 38.8282C41.4869 34.6096 38.0578 31.1898 33.8278 31.1898C29.5978 31.1898 26.1687 34.6096 26.1687 38.8282C26.1687 43.0467 29.5978 46.4665 33.8278 46.4665Z"
    fill="#FF802D" />
  <path
    d="M100.845 59.2877C97.9515 59.2877 95.4197 58.6511 93.2496 57.3781C91.0795 56.105 89.3775 54.1742 88.1435 51.5857C86.9521 48.9547 86.3564 45.6448 86.3564 41.6559C86.3564 37.6245 86.9308 34.3146 88.0797 31.726C89.2286 29.1375 90.8881 27.2067 93.0581 25.9336C95.2282 24.6606 97.8238 24.0241 100.845 24.0241C104.079 24.0241 106.972 24.7667 109.525 26.2519C112.121 27.6947 114.163 29.7316 115.653 32.3626C117.184 34.9935 117.95 38.0913 117.95 41.6559C117.95 45.2629 117.184 48.3818 115.653 51.0128C114.163 53.6438 112.121 55.6807 109.525 57.1235C106.972 58.5663 104.079 59.2877 100.845 59.2877ZM80.5482 71.1271V24.5333H90.0583V31.5351L89.8668 41.7195L90.5051 51.8403V71.1271H80.5482ZM99.1216 51.1401C100.781 51.1401 102.249 50.7582 103.526 49.9944C104.845 49.2305 105.887 48.1484 106.653 46.7481C107.462 45.3053 107.866 43.6079 107.866 41.6559C107.866 39.6614 107.462 37.964 106.653 36.5636C105.887 35.1633 104.845 34.0812 103.526 33.3174C102.249 32.5535 100.781 32.1716 99.1216 32.1716C97.4621 32.1716 95.9729 32.5535 94.6538 33.3174C93.3347 34.0812 92.2922 35.1633 91.5263 36.5636C90.7604 37.964 90.3774 39.6614 90.3774 41.6559C90.3774 43.6079 90.7604 45.3053 91.5263 46.7481C92.2922 48.1484 93.3347 49.2305 94.6538 49.9944C95.9729 50.7582 97.4621 51.1401 99.1216 51.1401Z"
    fill="url(#paint14_radial_271_2355)" />
  <path
    d="M136.168 59.2877C133.232 59.2877 130.402 58.9482 127.679 58.2692C124.999 57.5478 122.871 56.6567 121.297 55.5958L124.616 48.4667C126.19 49.4427 128.041 50.249 130.168 50.8855C132.339 51.4796 134.466 51.7766 136.551 51.7766C138.849 51.7766 140.466 51.5008 141.402 50.9492C142.38 50.3975 142.87 49.6337 142.87 48.6577C142.87 47.8514 142.487 47.2573 141.721 46.8754C140.998 46.451 140.019 46.1328 138.785 45.9206C137.551 45.7084 136.189 45.4962 134.7 45.2841C133.253 45.0719 131.785 44.7961 130.296 44.4566C128.807 44.0747 127.445 43.523 126.211 42.8016C124.977 42.0802 123.977 41.1042 123.211 39.8736C122.488 38.643 122.126 37.0517 122.126 35.0996C122.126 32.9354 122.743 31.0259 123.977 29.3709C125.254 27.7159 127.084 26.4216 129.466 25.4881C131.849 24.5121 134.7 24.0241 138.019 24.0241C140.359 24.0241 142.742 24.2787 145.168 24.7879C147.593 25.2971 149.614 26.0397 151.231 27.0157L147.912 34.0812C146.253 33.1052 144.572 32.4474 142.87 32.108C141.21 31.726 139.593 31.5351 138.019 31.5351C135.806 31.5351 134.19 31.8321 133.168 32.4262C132.147 33.0203 131.636 33.7841 131.636 34.7177C131.636 35.5664 131.998 36.2029 132.722 36.6273C133.487 37.0517 134.487 37.3911 135.721 37.6457C136.955 37.9004 138.296 38.1337 139.742 38.3459C141.232 38.5157 142.721 38.7915 144.21 39.1734C145.699 39.5553 147.04 40.107 148.231 40.8284C149.465 41.5073 150.465 42.4621 151.231 43.6928C151.997 44.8809 152.38 46.451 152.38 48.4031C152.38 50.5248 151.742 52.4132 150.465 54.0681C149.189 55.6807 147.338 56.9537 144.912 57.8873C142.529 58.8209 139.615 59.2877 136.168 59.2877Z"
    fill="url(#paint15_radial_271_2355)" />
  <path
    d="M172.629 58.7784L153.353 14.2215H164.523L181.373 53.6862H174.799L191.904 14.2215H202.18L182.841 58.7784H172.629Z"
    fill="#FF802D" />
  <path
    d="M205.769 58.7784V24.5333H215.726V58.7784H205.769ZM210.748 19.7593C208.918 19.7593 207.429 19.2289 206.28 18.168C205.131 17.1071 204.557 15.7916 204.557 14.2215C204.557 12.6514 205.131 11.336 206.28 10.2751C207.429 9.2142 208.918 8.68376 210.748 8.68376C212.577 8.68376 214.067 9.19298 215.216 10.2114C216.364 11.1874 216.939 12.4605 216.939 14.0306C216.939 15.6856 216.364 17.0647 215.216 18.168C214.109 19.2289 212.62 19.7593 210.748 19.7593Z"
    fill="#FF802D" />
  <path
    d="M236.52 59.2877C233.584 59.2877 230.754 58.9482 228.031 58.2692C225.35 57.5478 223.222 56.6567 221.648 55.5958L224.967 48.4667C226.541 49.4427 228.392 50.249 230.52 50.8855C232.69 51.4796 234.817 51.7766 236.902 51.7766C239.2 51.7766 240.817 51.5008 241.753 50.9492C242.732 50.3975 243.221 49.6337 243.221 48.6577C243.221 47.8514 242.838 47.2573 242.072 46.8754C241.349 46.451 240.37 46.1328 239.136 45.9206C237.902 45.7084 236.541 45.4962 235.052 45.2841C233.605 45.0719 232.137 44.7961 230.648 44.4566C229.158 44.0747 227.797 43.523 226.563 42.8016C225.329 42.0802 224.329 41.1042 223.563 39.8736C222.839 38.643 222.478 37.0517 222.478 35.0996C222.478 32.9354 223.095 31.0259 224.329 29.3709C225.605 27.7159 227.435 26.4216 229.818 25.4881C232.201 24.5121 235.052 24.0241 238.37 24.0241C240.711 24.0241 243.094 24.2787 245.519 24.7879C247.944 25.2971 249.966 26.0397 251.582 27.0157L248.264 34.0812C246.604 33.1052 244.923 32.4474 243.221 32.108C241.562 31.726 239.945 31.5351 238.37 31.5351C236.158 31.5351 234.541 31.8321 233.52 32.4262C232.498 33.0203 231.988 33.7841 231.988 34.7177C231.988 35.5664 232.35 36.2029 233.073 36.6273C233.839 37.0517 234.839 37.3911 236.073 37.6457C237.307 37.9004 238.647 38.1337 240.094 38.3459C241.583 38.5157 243.072 38.7915 244.562 39.1734C246.051 39.5553 247.391 40.107 248.583 40.8284C249.817 41.5073 250.817 42.4621 251.582 43.6928C252.348 44.8809 252.731 46.451 252.731 48.4031C252.731 50.5248 252.093 52.4132 250.817 54.0681C249.54 55.6807 247.689 56.9537 245.264 57.8873C242.881 58.8209 239.966 59.2877 236.52 59.2877Z"
    fill="#FF802D" />
  <path
    d="M258.875 58.7784V24.5333H268.831V58.7784H258.875ZM263.853 19.7593C262.023 19.7593 260.534 19.2289 259.385 18.168C258.236 17.1071 257.662 15.7916 257.662 14.2215C257.662 12.6514 258.236 11.336 259.385 10.2751C260.534 9.2142 262.023 8.68376 263.853 8.68376C265.683 8.68376 267.172 9.19298 268.321 10.2114C269.47 11.1874 270.044 12.4605 270.044 14.0306C270.044 15.6856 269.47 17.0647 268.321 18.168C267.214 19.2289 265.725 19.7593 263.853 19.7593Z"
    fill="#FF802D" />
  <path
    d="M294.412 59.2877C290.752 59.2877 287.497 58.5238 284.646 56.9962C281.838 55.4685 279.604 53.3892 277.945 50.7582C276.328 48.0848 275.519 45.0507 275.519 41.6559C275.519 38.2186 276.328 35.1845 277.945 32.5535C279.604 29.8801 281.838 27.8008 284.646 26.3156C287.497 24.7879 290.752 24.0241 294.412 24.0241C298.028 24.0241 301.262 24.7879 304.113 26.3156C306.964 27.8008 309.198 29.8589 310.815 32.4899C312.432 35.1209 313.24 38.1762 313.24 41.6559C313.24 45.0507 312.432 48.0848 310.815 50.7582C309.198 53.3892 306.964 55.4685 304.113 56.9962C301.262 58.5238 298.028 59.2877 294.412 59.2877ZM294.412 51.1401C296.071 51.1401 297.56 50.7582 298.88 49.9944C300.199 49.2305 301.241 48.1484 302.007 46.7481C302.773 45.3053 303.156 43.6079 303.156 41.6559C303.156 39.6614 302.773 37.964 302.007 36.5636C301.241 35.1633 300.199 34.0812 298.88 33.3174C297.56 32.5535 296.071 32.1716 294.412 32.1716C292.752 32.1716 291.263 32.5535 289.944 33.3174C288.625 34.0812 287.561 35.1633 286.753 36.5636C285.987 37.964 285.604 39.6614 285.604 41.6559C285.604 43.6079 285.987 45.3053 286.753 46.7481C287.561 48.1484 288.625 49.2305 289.944 49.9944C291.263 50.7582 292.752 51.1401 294.412 51.1401Z"
    fill="#FF802D" />
  <path
    d="M340.767 24.0241C343.49 24.0241 345.915 24.5757 348.043 25.679C350.213 26.7399 351.915 28.3949 353.149 30.6439C354.383 32.8506 355 35.6937 355 39.1734V58.7784H345.043V40.7011C345.043 37.9428 344.426 35.9059 343.192 34.5904C342.001 33.2749 340.299 32.6172 338.086 32.6172C336.512 32.6172 335.086 32.9567 333.81 33.6356C332.576 34.2722 331.597 35.2694 330.874 36.6273C330.193 37.9852 329.853 39.7251 329.853 41.8468V58.7784H319.896V24.5333H329.406V34.0175L327.619 31.1532C328.853 28.8617 330.618 27.1006 332.916 25.87C335.214 24.6394 337.831 24.0241 340.767 24.0241Z"
    fill="#FF802D" />
  <defs>
    <radialGradient id="paint0_radial_271_2355" cx="0" cy="0" r="1" gradientUnits="userSpaceOnUse"
      gradientTransform="translate(184.223 1.3513e-06) rotate(83.6931) scale(73.4445 353.034)">
      <stop stop-color="#306BFF" />
      <stop offset="1" stop-color="#083EC6" />
    </radialGradient>
    <radialGradient id="paint1_radial_271_2355" cx="0" cy="0" r="1" gradientUnits="userSpaceOnUse"
      gradientTransform="translate(184.223 1.3513e-06) rotate(83.6931) scale(73.4445 353.034)">
      <stop stop-color="#306BFF" />
      <stop offset="1" stop-color="#083EC6" />
    </radialGradient>
    <radialGradient id="paint2_radial_271_2355" cx="0" cy="0" r="1" gradientUnits="userSpaceOnUse"
      gradientTransform="translate(184.223 1.3513e-06) rotate(83.6931) scale(73.4445 353.034)">
      <stop stop-color="#306BFF" />
      <stop offset="1" stop-color="#083EC6" />
    </radialGradient>
    <radialGradient id="paint3_radial_271_2355" cx="0" cy="0" r="1" gradientUnits="userSpaceOnUse"
      gradientTransform="translate(184.223 1.3513e-06) rotate(83.6931) scale(73.4445 353.034)">
      <stop stop-color="#306BFF" />
      <stop offset="1" stop-color="#083EC6" />
    </radialGradient>
    <radialGradient id="paint4_radial_271_2355" cx="0" cy="0" r="1" gradientUnits="userSpaceOnUse"
      gradientTransform="translate(184.223 1.3513e-06) rotate(83.6931) scale(73.4445 353.034)">
      <stop stop-color="#306BFF" />
      <stop offset="1" stop-color="#083EC6" />
    </radialGradient>
    <radialGradient id="paint5_radial_271_2355" cx="0" cy="0" r="1" gradientUnits="userSpaceOnUse"
      gradientTransform="translate(184.223 1.3513e-06) rotate(83.6931) scale(73.4445 353.034)">
      <stop stop-color="#306BFF" />
      <stop offset="1" stop-color="#083EC6" />
    </radialGradient>
    <radialGradient id="paint6_radial_271_2355" cx="0" cy="0" r="1" gradientUnits="userSpaceOnUse"
      gradientTransform="translate(184.223 1.3513e-06) rotate(83.6931) scale(73.4445 353.034)">
      <stop stop-color="#306BFF" />
      <stop offset="1" stop-color="#083EC6" />
    </radialGradient>
    <radialGradient id="paint7_radial_271_2355" cx="0" cy="0" r="1" gradientUnits="userSpaceOnUse"
      gradientTransform="translate(184.223 1.3513e-06) rotate(83.6931) scale(73.4445 353.034)">
      <stop stop-color="#306BFF" />
      <stop offset="1" stop-color="#083EC6" />
    </radialGradient>
    <radialGradient id="paint8_radial_271_2355" cx="0" cy="0" r="1" gradientUnits="userSpaceOnUse"
      gradientTransform="translate(184.223 1.3513e-06) rotate(83.6931) scale(73.4445 353.034)">
      <stop stop-color="#306BFF" />
      <stop offset="1" stop-color="#083EC6" />
    </radialGradient>
    <radialGradient id="paint9_radial_271_2355" cx="0" cy="0" r="1" gradientUnits="userSpaceOnUse"
      gradientTransform="translate(184.223 1.3513e-06) rotate(83.6931) scale(73.4445 353.034)">
      <stop stop-color="#306BFF" />
      <stop offset="1" stop-color="#083EC6" />
    </radialGradient>
    <radialGradient id="paint10_radial_271_2355" cx="0" cy="0" r="1" gradientUnits="userSpaceOnUse"
      gradientTransform="translate(184.223 1.3513e-06) rotate(83.6931) scale(73.4445 353.034)">
      <stop stop-color="#306BFF" />
      <stop offset="1" stop-color="#083EC6" />
    </radialGradient>
    <radialGradient id="paint11_radial_271_2355" cx="0" cy="0" r="1" gradientUnits="userSpaceOnUse"
      gradientTransform="translate(184.223 1.3513e-06) rotate(83.6931) scale(73.4445 353.034)">
      <stop stop-color="#306BFF" />
      <stop offset="1" stop-color="#083EC6" />
    </radialGradient>
    <radialGradient id="paint12_radial_271_2355" cx="0" cy="0" r="1" gradientUnits="userSpaceOnUse"
      gradientTransform="translate(184.223 1.3513e-06) rotate(83.6931) scale(73.4445 353.034)">
      <stop stop-color="#306BFF" />
      <stop offset="1" stop-color="#083EC6" />
    </radialGradient>
    <radialGradient id="paint13_radial_271_2355" cx="0" cy="0" r="1" gradientUnits="userSpaceOnUse"
      gradientTransform="translate(184.223 1.3513e-06) rotate(83.6931) scale(73.4445 353.034)">
      <stop stop-color="#306BFF" />
      <stop offset="1" stop-color="#083EC6" />
    </radialGradient>
    <radialGradient id="paint14_radial_271_2355" cx="0" cy="0" r="1" gradientUnits="userSpaceOnUse"
      gradientTransform="translate(184.223 1.3513e-06) rotate(83.6931) scale(73.4445 353.034)">
      <stop stop-color="#306BFF" />
      <stop offset="1" stop-color="#083EC6" />
    </radialGradient>
    <radialGradient id="paint15_radial_271_2355" cx="0" cy="0" r="1" gradientUnits="userSpaceOnUse"
      gradientTransform="translate(184.223 1.3513e-06) rotate(83.6931) scale(73.4445 353.034)">
      <stop stop-color="#306BFF" />
      <stop offset="1" stop-color="#083EC6" />
    </radialGradient>
  </defs>
</svg>
  