<svg width="20" height="20" viewBox="0 0 20 20" fill="none" xmlns="http://www.w3.org/2000/svg">
<circle cx="10" cy="10" r="10" fill="#06AED5"/>
<g clipPath="url(#clip0_28_4938)">
<path d="M6.25004 10.0417C5.05837 10.0417 4.08337 11.0167 4.08337 12.2083C4.08337 13.4 5.05837 14.375 6.25004 14.375C7.44171 14.375 8.41671 13.4 8.41671 12.2083C8.41671 11.0167 7.44171 10.0417 6.25004 10.0417ZM9.50004 4.625C8.30837 4.625 7.33337 5.6 7.33337 6.79167C7.33337 7.98333 8.30837 8.95833 9.50004 8.95833C10.6917 8.95833 11.6667 7.98333 11.6667 6.79167C11.6667 5.6 10.6917 4.625 9.50004 4.625ZM12.75 10.0417C11.5584 10.0417 10.5834 11.0167 10.5834 12.2083C10.5834 13.4 11.5584 14.375 12.75 14.375C13.9417 14.375 14.9167 13.4 14.9167 12.2083C14.9167 11.0167 13.9417 10.0417 12.75 10.0417Z" fill="#FFFFF7"/>
</g>
<defs>
<clipPath id="clip0_28_4938">
<rect width="13" height="13" fill="white" transform="translate(3 3)"/>
</clipPath>
</defs>
</svg>
