<svg width="14" height="14" viewBox="0 0 14 14" fill="none" xmlns="http://www.w3.org/2000/svg">
<g clipPath="url(#clip0_28_4959)">
<path d="M10.675 3.33088C10.4475 3.10338 10.08 3.10338 9.85254 3.33088L7.00004 6.17754L4.14754 3.32504C3.92004 3.09754 3.55254 3.09754 3.32504 3.32504C3.09754 3.55254 3.09754 3.92004 3.32504 4.14754L6.17754 7.00004L3.32504 9.85254C3.09754 10.08 3.09754 10.4475 3.32504 10.675C3.55254 10.9025 3.92004 10.9025 4.14754 10.675L7.00004 7.82254L9.85254 10.675C10.08 10.9025 10.4475 10.9025 10.675 10.675C10.9025 10.4475 10.9025 10.08 10.675 9.85254L7.82254 7.00004L10.675 4.14754C10.8967 3.92588 10.8967 3.55254 10.675 3.33088Z" fill="#FFFFF7"/>
</g>
<defs>
<clipPath id="clip0_28_4959">
<rect width="14" height="14" fill="white"/>
</clipPath>
</defs>
</svg>
