<svg width="14" height="15" viewBox="0 0 14 15" fill="none" xmlns="http://www.w3.org/2000/svg">
<path d="M2.6075 12.75H11.3925C12.2908 12.75 12.8508 11.7759 12.4017 11L8.00917 3.41085C7.56 2.63502 6.44 2.63502 5.99083 3.41085L1.59833 11C1.14917 11.7759 1.70917 12.75 2.6075 12.75ZM7 8.66669C6.67917 8.66669 6.41667 8.40419 6.41667 8.08335V6.91669C6.41667 6.59585 6.67917 6.33335 7 6.33335C7.32083 6.33335 7.58333 6.59585 7.58333 6.91669V8.08335C7.58333 8.40419 7.32083 8.66669 7 8.66669ZM7.58333 11H6.41667V9.83335H7.58333V11Z" fill="#F59823"/>
</svg>
